<?xml version="1.0" encoding="UTF-8"?>
<!-- Generator: visioncortex VTracer 0.6.3 -->
<svg version="1.1" xmlns="http://www.w3.org/2000/svg" width="1280" height="385">
<path d="M0 0 C43.23 0 86.46 0 131 0 C131 41.91 131 83.82 131 127 C131.66 127 132.32 127 133 127 C133.33 126.34 133.66 125.68 134 125 C134 125.66 134 126.32 134 127 C174.59 127 215.18 127 257 127 C257 170.23 257 213.46 257 258 C194.13 258.5 194.13 258.5 130 259 C130.33 259.66 130.66 260.32 131 261 C131 301.92 131 342.84 131 385 C45.86 385 -39.28 385 -127 385 C-127 299.86 -127 214.72 -127 127 C-110.34 126.36 -93.79 125.85 -77.13 125.87 C-74.98 125.87 -72.82 125.87 -70.67 125.86 C-66.22 125.86 -61.78 125.86 -57.33 125.87 C-51.63 125.88 -45.93 125.87 -40.23 125.87 C-35.82 125.86 -31.4 125.86 -26.99 125.87 C-24.88 125.87 -22.78 125.87 -20.67 125.86 C-17.76 125.86 -14.84 125.87 -11.92 125.87 C-11.06 125.87 -10.19 125.87 -9.3 125.86 C-5.95 125.88 -3.2 125.93 0 127 C0 85.09 0 43.18 0 0 Z " fill="#003450" transform="translate(127,0)"/>
<path d="M0 0 C43.23 0 86.46 0 131 0 C131.33 42.24 131.66 84.48 132 128 C67.15 128.5 67.15 128.5 1 129 C1 170.91 1 212.82 1 256 C-41.24 256 -83.48 256 -127 256 C-127 213.43 -127 170.86 -127 127 C-110.34 126.36 -93.79 125.85 -77.13 125.87 C-74.98 125.87 -72.82 125.87 -70.67 125.86 C-66.22 125.86 -61.78 125.86 -57.33 125.87 C-51.63 125.88 -45.93 125.87 -40.23 125.87 C-35.82 125.86 -31.4 125.86 -26.99 125.87 C-24.88 125.87 -22.78 125.87 -20.67 125.86 C-17.76 125.86 -14.84 125.87 -11.92 125.87 C-11.06 125.87 -10.19 125.87 -9.3 125.86 C-5.95 125.88 -3.2 125.93 0 127 C0 85.09 0 43.18 0 0 Z " fill="#FB0B4C" transform="translate(127,0)"/>
<path d="M0 0 C0.33 0.66 0.66 1.32 1 2 C41.59 2 82.18 2 124 2 C124 45.23 124 88.46 124 133 C61.13 133.5 61.13 133.5 -3 134 C-3.33 133.01 -3.66 132.02 -4 131 C-46.24 131 -88.48 131 -132 131 C-132 89.09 -132 47.18 -132 4 C-132.66 3.67 -133.32 3.34 -134 3 C-90.11 2.67 -46.22 2.34 -1 2 C-0.67 1.34 -0.34 0.68 0 0 Z " fill="#00E65F" transform="translate(260,125)"/>
<path d="M0 0 C0.99 0 1.98 0 3 0 C3 0.66 3 1.32 3 2 C4.29 2 5.57 1.99 6.9 1.99 C18.99 1.95 31.09 1.92 43.18 1.9 C49.4 1.89 55.62 1.87 61.84 1.85 C67.84 1.83 73.84 1.82 79.84 1.81 C82.13 1.81 84.42 1.8 86.71 1.79 C89.91 1.77 93.12 1.77 96.32 1.77 C97.27 1.77 98.23 1.76 99.21 1.75 C100.52 1.76 100.52 1.76 101.85 1.76 C102.61 1.76 103.36 1.76 104.15 1.75 C106 2 106 2 108 4 C109.99 4.41 111.99 4.73 114 5 C119.78 5.78 119.78 5.78 122 8 C123.99 8.69 125.99 9.36 128 10 C133.19 11.91 136.26 13.95 140 18 C140.99 18.66 141.98 19.32 143 20 C144.23 21.46 145.47 22.93 146.67 24.42 C148.16 26.24 148.16 26.24 150.69 28.62 C153 31 153 31 154.06 33.19 C155.27 35.53 156.6 36.04 159 37 C159 37.99 159 38.98 159 40 C159.66 39.67 160.32 39.34 161 39 C161.15 39.9 161.15 39.9 161.31 40.81 C161.82 43.08 161.82 43.08 163.56 44.44 C165 46 165 46 165.19 48.69 C165.13 49.45 165.06 50.21 165 51 C165.33 51 165.66 51 166 51 C166.05 51.71 166.1 52.42 166.15 53.15 C166.26 54.53 166.26 54.53 166.38 55.94 C166.48 57.31 166.48 57.31 166.59 58.71 C166.72 59.47 166.86 60.22 167 61 C167.66 61.33 168.32 61.66 169 62 C173.14 68.21 172.22 75.59 172.25 82.81 C172.28 84.54 172.28 84.54 172.31 86.3 C172.34 92.94 171.82 97.96 169 104 C168.34 104 167.68 104 167 104 C166.96 104.76 166.93 105.52 166.89 106.3 C166.79 107.79 166.79 107.79 166.69 109.31 C166.63 110.3 166.57 111.28 166.51 112.3 C165.94 115.31 165.27 116.07 163 118 C161.86 120.54 160.96 123.11 160.06 125.75 C159.71 126.49 159.36 127.24 159 128 C158.01 128.33 157.02 128.66 156 129 C156 129.99 156 130.98 156 132 C154.09 134.57 151.72 136.75 149.44 139 C148.83 139.63 148.22 140.26 147.59 140.91 C143.61 144.89 140.24 146.99 135 149 C134.22 149.85 133.43 150.69 132.62 151.56 C129.49 154.47 127.31 154.89 123.18 155.54 C120.85 156.03 119.11 156.9 117 158 C114.68 158.7 112.34 159.36 110 160 C109.05 160.34 108.11 160.69 107.13 161.04 C101.32 162.69 95.22 162.34 89.23 162.38 C87.21 162.4 85.2 162.43 83.18 162.46 C80.37 162.49 77.57 162.52 74.76 162.54 C69.83 162.59 64.89 162.64 59.96 162.71 C57.33 162.74 54.71 162.76 52.08 162.79 C50.9 162.8 49.72 162.81 48.51 162.83 C47.47 162.84 46.43 162.85 45.35 162.86 C43.04 162.74 43.04 162.74 42 164 C41.87 166.86 41.81 169.7 41.79 172.56 C41.78 173.46 41.77 174.35 41.76 175.28 C41.73 178.26 41.71 181.24 41.68 184.22 C41.66 186.28 41.64 188.35 41.62 190.41 C41.57 195.84 41.52 201.28 41.47 206.72 C41.42 212.26 41.36 217.8 41.31 223.35 C41.2 234.23 41.1 245.12 41 256 C40.34 256.33 39.68 256.66 39 257 C39 257.33 39 257.66 39 258 C37.98 258.03 36.96 258.05 35.91 258.08 C32.13 258.17 28.36 258.27 24.58 258.37 C22.95 258.42 21.31 258.46 19.68 258.5 C17.33 258.55 14.98 258.62 12.63 258.68 C11.53 258.71 11.53 258.71 10.41 258.73 C6.58 258.79 6.58 258.79 3 260 C0.84 260.15 -1.33 260.22 -3.5 260.25 C-4.67 260.28 -5.83 260.3 -7.03 260.33 C-8.5 260.17 -8.5 260.17 -10 260 C-12.08 256.88 -12.25 256.22 -12.25 252.69 C-12.26 251.8 -12.26 250.91 -12.27 250 C-12.26 249.03 -12.26 248.05 -12.25 247.05 C-12.26 246.01 -12.26 244.98 -12.26 243.91 C-12.27 240.43 -12.27 236.95 -12.26 233.47 C-12.26 230.98 -12.27 228.49 -12.27 226 C-12.28 219.93 -12.28 213.86 -12.27 207.79 C-12.27 202.85 -12.27 197.92 -12.27 192.99 C-12.27 192.29 -12.27 191.59 -12.27 190.87 C-12.27 189.44 -12.27 188.02 -12.27 186.59 C-12.28 173.23 -12.27 159.87 -12.26 146.5 C-12.25 135.03 -12.25 123.55 -12.26 112.08 C-12.27 98.76 -12.28 85.45 -12.27 72.13 C-12.27 70.71 -12.27 69.29 -12.27 67.87 C-12.27 67.18 -12.27 66.48 -12.27 65.76 C-12.26 60.83 -12.27 55.9 -12.27 50.97 C-12.28 44.35 -12.27 37.72 -12.26 31.09 C-12.26 28.65 -12.26 26.21 -12.27 23.77 C-12.27 20.46 -12.26 17.14 -12.25 13.83 C-12.26 12.85 -12.26 11.87 -12.27 10.87 C-12.26 9.98 -12.26 9.1 -12.25 8.19 C-12.25 7.42 -12.25 6.66 -12.25 5.87 C-12 4 -12 4 -10 2 C-7.62 1.8 -7.62 1.8 -4.88 1.88 C-3.51 1.9 -3.51 1.9 -2.12 1.93 C-1.42 1.95 -0.72 1.98 0 2 C0 1.34 0 0.68 0 0 Z M162 45 C163 49 163 49 163 49 Z M42 48 C42.33 48.66 42.66 49.32 43 50 C43.09 52.09 43.12 54.19 43.11 56.29 C43.11 56.93 43.11 57.57 43.11 58.24 C43.11 60.37 43.11 62.5 43.1 64.63 C43.1 66.11 43.09 67.59 43.09 69.06 C43.09 72.95 43.08 76.84 43.07 80.73 C43.06 84.7 43.05 88.67 43.05 92.64 C43.04 100.42 43.02 108.21 43 116 C50.24 116.13 57.48 116.21 64.72 116.27 C67.18 116.3 69.64 116.33 72.1 116.38 C75.65 116.44 79.2 116.47 82.75 116.49 C83.84 116.51 84.93 116.54 86.05 116.57 C95.29 116.57 101.58 113.58 108.44 107.44 C109.08 106.88 109.71 106.32 110.37 105.75 C113.02 102.9 114 100.9 114 97 C114.66 97 115.32 97 116 97 C117.52 92.44 117.18 87.9 117.19 83.12 C117.2 82.13 117.21 81.14 117.22 80.11 C117.23 79.15 117.23 78.19 117.23 77.2 C117.23 76.32 117.24 75.44 117.24 74.54 C116.97 71.7 116.17 69.59 115 67 C114.61 66.07 114.22 65.14 113.81 64.19 C111.25 59.68 107.74 54.37 103 52 C102.53 51.5 102.05 51.01 101.56 50.5 C98.61 47.66 95.49 47.88 91.61 47.89 C89.96 47.89 89.96 47.89 88.27 47.89 C87.09 47.89 85.9 47.9 84.68 47.9 C83.46 47.9 82.24 47.91 80.99 47.91 C77.1 47.91 73.2 47.92 69.31 47.94 C66.68 47.94 64.04 47.95 61.4 47.95 C54.94 47.96 48.47 47.98 42 48 Z M41 49 C41 70.45 41 91.9 41 114 C41.33 114 41.66 114 42 114 C42 92.55 42 71.1 42 49 C41.67 49 41.34 49 41 49 Z M160 120 C161 122 161 122 161 122 Z " fill="#3C3F40" transform="translate(510,122)"/>
<path d="M0 0 C1.19 -0 1.19 -0 2.4 -0 C9.76 0.07 16.59 0.38 23.44 3.19 C25.43 3.41 27.41 3.64 29.4 3.85 C32.68 4.39 35.45 5.77 38.44 7.19 C39.23 7.52 40.02 7.86 40.84 8.2 C42.06 8.72 42.06 8.72 43.31 9.25 C44.07 9.57 44.83 9.89 45.62 10.22 C47.44 11.19 47.44 11.19 48.44 13.19 C49.32 13.62 50.21 14.05 51.12 14.5 C57.31 17.65 61.4 22.11 65.83 27.34 C67.49 29.32 67.49 29.32 69.81 31.38 C71.8 33.59 72.11 35.27 72.44 38.19 C73.43 38.52 74.42 38.85 75.44 39.19 C76.62 42.25 76.62 42.25 77.44 45.19 C76.78 45.19 76.12 45.19 75.44 45.19 C76.01 46.28 76.59 47.37 77.19 48.5 C77.51 49.11 77.84 49.73 78.17 50.36 C79.37 52.32 79.37 52.32 81.5 53.56 C84.14 55.78 84.21 57.51 84.69 60.88 C84.91 62.37 84.91 62.37 85.14 63.89 C85.24 64.65 85.34 65.41 85.44 66.19 C85.77 66.19 86.1 66.19 86.44 66.19 C87.42 71.11 87.6 75.81 87.61 80.8 C87.61 81.6 87.61 82.41 87.62 83.25 C87.62 84.94 87.62 86.64 87.62 88.34 C87.63 90.94 87.64 93.55 87.66 96.15 C87.67 97.8 87.67 99.46 87.67 101.11 C87.68 101.89 87.68 102.67 87.69 103.47 C87.67 108.96 87.67 108.96 85.44 111.19 C85.11 110.86 84.78 110.53 84.44 110.19 C82.83 110.1 81.22 110.09 79.61 110.11 C78.56 110.11 77.52 110.12 76.44 110.13 C75.29 110.14 74.13 110.15 72.94 110.17 C71.73 110.18 70.52 110.18 69.28 110.19 C65.95 110.22 62.62 110.25 59.3 110.29 C55.82 110.32 52.35 110.35 48.88 110.38 C42.3 110.44 35.72 110.5 29.14 110.56 C21.65 110.63 14.16 110.7 6.67 110.76 C-8.74 110.9 -24.15 111.04 -39.56 111.19 C-38.57 111.68 -38.57 111.68 -37.56 112.19 C-36.19 118.23 -36.19 118.23 -37.5 121.62 C-38.03 122.4 -38.03 122.4 -38.56 123.19 C-37.9 123.19 -37.24 123.19 -36.56 123.19 C-36.09 123.99 -35.61 124.8 -35.12 125.62 C-33.76 128.48 -33.76 128.48 -30.56 129.19 C-30.41 130.36 -30.41 130.36 -30.25 131.56 C-29.79 134.52 -29.79 134.52 -26.56 136.19 C-25.57 136.52 -24.58 136.85 -23.56 137.19 C-23.56 137.85 -23.56 138.51 -23.56 139.19 C-20.34 140.92 -17.05 142.08 -13.56 143.19 C-13.56 143.85 -13.56 144.51 -13.56 145.19 C-6.16 146.1 1.11 146.31 8.56 146.25 C9.61 146.25 10.67 146.24 11.75 146.24 C14.31 146.22 16.87 146.21 19.44 146.19 C19.44 145.53 19.44 144.87 19.44 144.19 C20.95 143.63 20.95 143.63 22.5 143.06 C29.34 140.13 34.98 134.62 38.58 128.13 C41.76 122.47 41.76 122.47 45.31 121 C49.2 121.23 51.91 122.58 55.44 124.19 C57.77 124.54 60.1 124.87 62.44 125.19 C63.43 125.85 64.42 126.51 65.44 127.19 C68.26 127.79 71.09 128.2 73.94 128.62 C76.44 129.19 76.44 129.19 78.44 131.19 C80.42 131.9 82.42 132.57 84.44 133.19 C83.45 133.52 82.46 133.85 81.44 134.19 C81.62 134.97 81.81 135.75 82 136.56 C82.44 139.19 82.44 139.19 81.44 141.19 C81.17 143.49 80.99 145.79 80.82 148.09 C80.44 150.19 80.44 150.19 78.44 152.19 C78.11 151.53 77.78 150.87 77.44 150.19 C76.78 150.19 76.12 150.19 75.44 150.19 C75.62 150.83 75.81 151.47 76 152.12 C76.22 153.15 76.22 153.15 76.44 154.19 C76.11 154.52 75.78 154.85 75.44 155.19 C75.77 155.85 76.1 156.51 76.44 157.19 C75.72 157.42 75 157.65 74.27 157.88 C70.87 159.45 68.82 161.41 66.19 164.06 C64.88 165.36 64.88 165.36 63.55 166.68 C61.49 169.13 61.13 170.22 60.44 173.19 C58.13 174.25 55.8 175.25 53.44 176.19 C52.42 177.17 51.42 178.17 50.44 179.19 C48.79 179.9 47.12 180.56 45.44 181.19 C43.43 182.17 41.43 183.17 39.44 184.19 C39.44 184.52 39.44 184.85 39.44 185.19 C37.13 185.52 34.82 185.85 32.44 186.19 C32.11 187.51 31.78 188.83 31.44 190.19 C12.96 190.19 -5.52 190.19 -24.56 190.19 C-24.56 189.53 -24.56 188.87 -24.56 188.19 C-25.55 187.86 -26.54 187.53 -27.56 187.19 C-27.56 186.53 -27.56 185.87 -27.56 185.19 C-28.55 185.19 -29.54 185.19 -30.56 185.19 C-30.56 184.53 -30.56 183.87 -30.56 183.19 C-31.61 183 -31.61 183 -32.69 182.81 C-37.5 181.77 -42.02 180.06 -46.56 178.19 C-46.56 177.53 -46.56 176.87 -46.56 176.19 C-47.18 176.02 -47.79 175.85 -48.43 175.67 C-56.21 173.34 -56.21 173.34 -58.56 169.19 C-59.22 168.86 -59.88 168.53 -60.56 168.19 C-62.25 166.54 -63.92 164.87 -65.56 163.19 C-66.43 162.38 -67.29 161.58 -68.19 160.75 C-70.7 158.04 -72 155.52 -73.56 152.19 C-74.4 151.07 -74.4 151.07 -75.25 149.94 C-76.56 148.19 -76.56 148.19 -76.56 146.19 C-77.22 146.19 -77.88 146.19 -78.56 146.19 C-78.89 144.21 -79.22 142.23 -79.56 140.19 C-80.22 140.19 -80.88 140.19 -81.56 140.19 C-81.68 139.55 -81.8 138.91 -81.93 138.25 C-82.1 137.43 -82.26 136.6 -82.44 135.75 C-82.6 134.93 -82.76 134.1 -82.93 133.25 C-83.14 132.57 -83.35 131.89 -83.56 131.19 C-84.22 130.86 -84.88 130.53 -85.56 130.19 C-86.12 128 -86.12 128 -86.56 125.19 C-87.18 121.22 -87.18 121.22 -88.06 117.3 C-89.89 110.27 -89.86 103.41 -89.81 96.19 C-89.82 94.97 -89.83 93.75 -89.84 92.49 C-89.82 85.76 -89.33 79.68 -87.56 73.19 C-87.2 71.42 -86.85 69.65 -86.5 67.88 C-85.93 64.95 -85.31 62.07 -84.56 59.19 C-83.9 59.19 -83.24 59.19 -82.56 59.19 C-82.48 58.36 -82.4 57.54 -82.31 56.69 C-81.4 52.42 -79.64 49 -77.56 45.19 C-76.9 45.19 -76.24 45.19 -75.56 45.19 C-75.48 44.47 -75.4 43.76 -75.32 43.02 C-72.53 32.55 -58.73 20.75 -49.56 15.19 C-47.33 14.53 -47.33 14.53 -45.56 14.19 C-45.56 13.53 -45.56 12.87 -45.56 12.19 C-44.24 11.86 -42.92 11.53 -41.56 11.19 C-41.56 10.53 -41.56 9.87 -41.56 9.19 C-40.88 8.99 -40.19 8.8 -39.48 8.6 C-38.13 8.21 -38.13 8.21 -36.75 7.81 C-35.86 7.56 -34.96 7.3 -34.04 7.04 C-31.36 6.23 -31.36 6.23 -28.56 4.19 C-26.41 3.55 -24.25 3.14 -22.05 2.7 C-20.5 2.38 -18.95 2.02 -17.42 1.62 C-11.61 0.17 -5.95 0.01 0 0 Z M-24.56 49.31 C-25.72 51.13 -25.72 51.13 -25.56 53.19 C-26.16 53.46 -26.76 53.72 -27.38 54 C-30.87 55.9 -32.3 57.39 -33.56 61.19 C-34.56 64.19 -34.56 64.19 -36.56 65.19 C-36.56 66.18 -36.56 67.17 -36.56 68.19 C-37.22 68.19 -37.88 68.19 -38.56 68.19 C-38.89 69.84 -39.22 71.49 -39.56 73.19 C-38.9 73.19 -38.24 73.19 -37.56 73.19 C-37.56 73.85 -37.56 74.51 -37.56 75.19 C-13.47 75.19 10.62 75.19 35.44 75.19 C36.31 71.71 36.5 70.28 36 66.94 C35.81 65.7 35.63 64.46 35.44 63.19 C33.95 62.69 33.95 62.69 32.44 62.19 C31.31 58.75 31.31 58.75 30.44 55.19 C29.94 54.2 29.94 54.2 29.44 53.19 C28.78 53.19 28.12 53.19 27.44 53.19 C27.44 52.53 27.44 51.87 27.44 51.19 C25.8 50.14 24.13 49.14 22.44 48.19 C21.44 47.19 21.44 47.19 20.12 45.62 C18.3 43.76 18.3 43.76 14.44 44.19 C14.44 43.86 14.44 43.53 14.44 43.19 C10.45 43.09 6.47 43.02 2.49 42.97 C0.47 42.94 -1.54 42.89 -3.55 42.84 C-11.93 42.75 -18.51 42.88 -24.56 49.31 Z M82.44 63.19 C83.44 66.19 83.44 66.19 83.44 66.19 Z M82.44 67.19 C83.44 70.19 83.44 70.19 83.44 70.19 Z M84.44 84.19 C85.44 86.19 85.44 86.19 85.44 86.19 Z M82.44 107.19 C83.44 109.19 83.44 109.19 83.44 109.19 Z M78.44 146.19 C79.44 148.19 79.44 148.19 79.44 148.19 Z " fill="#3C3F40" transform="translate(1072.5625,194.8125)"/>
<path d="M0 0 C2.63 -0.01 5.27 -0.04 7.9 -0.07 C9.6 -0.08 11.29 -0.08 12.99 -0.09 C13.76 -0.1 14.54 -0.11 15.34 -0.13 C20.15 -0.11 23.46 0.56 27.61 3.24 C28.99 5.93 28.99 5.93 29.61 8.24 C30.27 8.24 30.93 8.24 31.61 8.24 C32.11 11.21 32.11 11.21 32.61 14.24 C33.6 14.24 34.59 14.24 35.61 14.24 C37.61 17.99 37.61 17.99 37.61 20.24 C38.27 20.24 38.93 20.24 39.61 20.24 C40.11 22.72 40.11 22.72 40.61 25.24 C41.11 24.75 41.11 24.75 41.61 24.24 C44.52 27.53 46.11 29.84 46.61 34.24 C48.1 34.74 48.1 34.74 49.61 35.24 C49.9 36.17 50.19 37.1 50.49 38.05 C51.83 41.85 53.49 42.84 56.61 45.24 C57.42 47.49 57.42 47.49 57.61 49.24 C58.93 49.24 60.25 49.24 61.61 49.24 C62.02 48.35 62.44 47.47 62.86 46.55 C64.61 43.24 64.61 43.24 66.43 40.98 C68.96 37.8 71.12 34.48 73.3 31.05 C73.7 30.42 74.1 29.8 74.52 29.15 C76.69 25.76 76.69 25.76 78.61 22.24 C79.27 22.24 79.93 22.24 80.61 22.24 C80.75 21.43 80.75 21.43 80.9 20.6 C81.82 17.54 83.34 15.18 85.05 12.49 C85.67 11.51 86.28 10.52 86.92 9.51 C87.48 8.76 88.04 8.01 88.61 7.24 C89.27 7.24 89.93 7.24 90.61 7.24 C90.88 6.27 91.15 5.3 91.42 4.3 C91.82 3.29 92.21 2.28 92.61 1.24 C96.35 -0.01 99.83 0.1 103.72 0.11 C104.53 0.11 105.34 0.11 106.17 0.1 C107.88 0.1 109.59 0.11 111.3 0.11 C113.88 0.12 116.45 0.11 119.02 0.1 C128.6 0.1 138.06 0.38 147.61 1.24 C148.6 4.21 148.6 4.21 149.61 7.24 C148.29 7.24 146.97 7.24 145.61 7.24 C145.61 8.23 145.61 9.22 145.61 10.24 C144.95 10.57 144.29 10.9 143.61 11.24 C142.95 14.27 142.95 14.27 142.61 17.24 C141.95 17.24 141.29 17.24 140.61 17.24 C139.25 19.22 137.92 21.22 136.61 23.24 C136.07 23.76 135.54 24.27 134.99 24.8 C133.15 26.72 132.5 28.76 131.61 31.24 C131.28 31.9 130.95 32.56 130.61 33.24 C129.95 33.24 129.29 33.24 128.61 33.24 C128.61 33.9 128.61 34.56 128.61 35.24 C126.96 35.9 125.31 36.56 123.61 37.24 C123.57 38.29 123.53 39.34 123.49 40.43 C122.38 45.24 120.4 46.24 116.61 49.24 C115.66 51.91 115.66 51.91 115.61 54.24 C114.95 54.24 114.29 54.24 113.61 54.24 C113.53 54.82 113.45 55.4 113.36 55.99 C112.38 58.92 110.98 60.29 108.61 62.24 C107.62 62.24 106.63 62.24 105.61 62.24 C105.28 63.56 104.95 64.88 104.61 66.24 C103.95 66.24 103.29 66.24 102.61 66.24 C102.67 67 102.73 67.77 102.8 68.55 C102.61 71.24 102.61 71.24 101.11 73.05 C100.37 73.64 100.37 73.64 99.61 74.24 C99.94 74.9 100.27 75.56 100.61 76.24 C99.95 76.9 99.29 77.56 98.61 78.24 C97.62 77.91 96.63 77.58 95.61 77.24 C95.88 77.8 96.15 78.35 96.42 78.93 C96.49 79.69 96.55 80.45 96.61 81.24 C94.97 82.93 93.3 84.59 91.61 86.24 C90.74 88.92 90.74 88.92 90.61 91.24 C91.27 91.57 91.93 91.9 92.61 92.24 C92.67 92.94 92.73 93.64 92.8 94.37 C93.89 98.23 96.14 99.9 99.11 102.49 C100.61 104.24 100.61 104.24 100.61 108.24 C101.27 107.58 101.93 106.92 102.61 106.24 C102.85 106.82 103.1 107.4 103.35 108 C106.71 115.84 111 121.81 116.71 128.12 C119.81 131.57 122.58 134.76 124.36 139.05 C125.61 141.49 125.61 141.49 128.3 143.74 C129.06 144.57 129.82 145.39 130.61 146.24 C130.42 148.55 130.42 148.55 129.61 150.24 C130.6 149.91 131.59 149.58 132.61 149.24 C132.94 150.23 133.27 151.22 133.61 152.24 C134.29 152.9 134.97 153.56 135.67 154.24 C137.61 156.24 137.61 156.24 137.61 159.24 C138.27 159.9 138.93 160.56 139.61 161.24 C141.61 163.24 141.61 163.24 141.61 166.24 C142.27 166.24 142.93 166.24 143.61 166.24 C144.6 169.71 144.6 169.71 145.61 173.24 C146.27 173.24 146.93 173.24 147.61 173.24 C147.61 173.9 147.61 174.56 147.61 175.24 C148.6 175.57 149.59 175.9 150.61 176.24 C150.61 177.56 150.61 178.88 150.61 180.24 C143.21 180.29 135.82 180.32 128.42 180.34 C124.98 180.35 121.55 180.37 118.11 180.39 C114.17 180.42 110.22 180.43 106.27 180.44 C105.04 180.45 103.8 180.46 102.53 180.47 C101.39 180.47 100.25 180.47 99.07 180.47 C98.06 180.47 97.05 180.48 96.02 180.48 C93.61 180.24 93.61 180.24 91.61 178.24 C90.99 177.66 90.37 177.09 89.74 176.49 C86.81 173.39 84.47 170.02 82.61 166.18 C81.6 164.05 81.6 164.05 79.61 161.8 C77.61 159.24 77.61 159.24 76.67 156.74 C75.71 154.02 75.71 154.02 73.11 151.8 C70.39 149.02 69.56 146.97 68.61 143.24 C67.95 143.24 67.29 143.24 66.61 143.24 C66.18 142.15 65.74 141.05 65.3 139.93 C64.1 137.1 62.9 135.31 60.61 133.24 C60.61 132.58 60.61 131.92 60.61 131.24 C56.48 131.81 56.48 131.81 52.61 133.24 C52.24 134.79 52.24 134.79 51.86 136.37 C50.84 140.37 48.74 142.64 45.99 145.62 C44.45 147.25 44.45 147.25 43.61 149.74 C42.11 153.49 39.54 156.48 36.61 159.24 C35.95 159.24 35.29 159.24 34.61 159.24 C34.88 159.8 35.15 160.35 35.42 160.93 C35.49 161.69 35.55 162.45 35.61 163.24 C33.97 164.93 32.3 166.59 30.61 168.24 C30.3 169.23 29.99 170.22 29.67 171.24 C28.22 175.35 26.08 176.67 22.61 179.24 C22.94 180.23 23.27 181.22 23.61 182.24 C5.46 182.24 -12.69 182.24 -31.39 182.24 C-32.47 177.91 -32.34 177.04 -30.39 173.24 C-29.39 172.24 -28.39 171.24 -27.39 170.24 C-26.94 169.31 -26.48 168.38 -26.01 167.43 C-24.52 164.5 -22.85 162.32 -20.71 159.87 C-18.79 157.5 -17.29 154.93 -15.72 152.33 C-13.85 149.4 -11.75 146.66 -9.62 143.9 C-8.32 142.25 -8.32 142.25 -7.39 140.24 C-6.73 140.24 -6.07 140.24 -5.39 140.24 C-5.05 139.25 -5.05 139.25 -4.7 138.24 C-1.82 131.66 2.18 126.48 6.98 121.19 C9.31 118.4 10.87 115.42 12.61 112.24 C13.94 110.57 15.27 108.9 16.61 107.24 C17.11 105.76 17.11 105.76 17.61 104.24 C18.27 104.24 18.93 104.24 19.61 104.24 C19.88 103.7 20.15 103.17 20.42 102.62 C21.82 99.82 23.22 97.03 24.61 94.24 C25.27 94.24 25.93 94.24 26.61 94.24 C26.01 89.09 24.76 85.39 21.05 81.68 C19.38 80.01 18.64 78.36 17.61 76.24 C17.07 75.54 16.54 74.84 15.99 74.12 C14.61 72.24 14.61 72.24 14.61 70.24 C13.95 70.24 13.29 70.24 12.61 70.24 C12.43 69.58 12.24 68.92 12.05 68.24 C10.33 64.64 8.04 62.13 5.36 59.21 C3.66 57.29 2.14 55.3 0.61 53.24 C-0.05 52.58 -0.71 51.92 -1.39 51.24 C-1.51 50.62 -1.64 50 -1.76 49.37 C-2.6 46.52 -4.25 45.24 -6.39 43.24 C-6.72 42.58 -7.05 41.92 -7.39 41.24 C-8.05 40.58 -8.71 39.92 -9.39 39.24 C-9.39 38.25 -9.39 37.26 -9.39 36.24 C-10.87 35.75 -10.87 35.75 -12.39 35.24 C-13.38 33.6 -13.38 33.6 -14.26 31.55 C-16.16 27.49 -18.42 24.59 -21.39 21.24 C-21.93 20.52 -22.46 19.8 -23.01 19.05 C-24.34 17.2 -24.34 17.2 -26.01 15.68 C-27.39 14.24 -27.39 14.24 -28.39 11.24 C-29.26 10.44 -30.12 9.63 -31.01 8.8 C-31.8 7.96 -32.58 7.11 -33.39 6.24 C-33.26 3.93 -33.02 2.87 -31.39 1.24 C-21.01 -0.06 -10.44 0.02 0 0 Z M25.61 3.24 C26.61 5.24 26.61 5.24 26.61 5.24 Z M42.61 29.24 C43.6 30.73 43.6 30.73 44.61 32.24 C44.61 31.25 44.61 30.26 44.61 29.24 C43.95 29.24 43.29 29.24 42.61 29.24 Z M91.61 82.24 C92.61 84.24 92.61 84.24 92.61 84.24 Z M90.61 93.24 C91.61 95.24 91.61 95.24 91.61 95.24 Z M41.61 149.24 C40.62 149.74 40.62 149.74 39.61 150.24 C39.94 150.9 40.27 151.56 40.61 152.24 C41.27 151.91 41.93 151.58 42.61 151.24 C42.28 150.58 41.95 149.92 41.61 149.24 Z M148.61 177.24 C149.61 179.24 149.61 179.24 149.61 179.24 Z " fill="#3C3F40" transform="translate(824.38916015625,199.759765625)"/>
<path d="M0 0 C2.16 -0 4.31 -0 6.47 -0 C10.92 -0 15.37 -0 19.82 0 C25.52 0.01 31.23 0 36.94 -0 C41.36 -0 45.78 -0 50.2 -0 C52.31 -0 54.42 -0 56.53 -0 C59.45 -0.01 62.36 -0 65.28 0 C66.15 0 67.02 -0 67.91 -0 C73.87 0.02 73.87 0.02 76.09 1.13 C76.09 1.79 76.09 2.45 76.09 3.13 C76.75 3.13 77.41 3.13 78.09 3.13 C78.09 45.04 78.09 86.95 78.09 130.13 C35.85 130.13 -6.39 130.13 -49.91 130.13 C-49.91 87.56 -49.91 44.99 -49.91 1.13 C-33.23 0.49 -16.67 -0.02 0 0 Z " fill="#FB6B8F" transform="translate(49.90625,125.8671875)"/>
<path d="M0 0 C20.77 -0.02 41.54 -0.04 62.94 -0.06 C72.79 -0.08 72.79 -0.08 82.84 -0.09 C90.84 -0.09 90.84 -0.09 94.57 -0.1 C97.2 -0.1 99.82 -0.1 102.44 -0.11 C106.4 -0.11 110.36 -0.11 114.32 -0.11 C115.5 -0.12 116.67 -0.12 117.89 -0.12 C118.95 -0.12 120 -0.12 121.1 -0.12 C122.02 -0.12 122.95 -0.12 123.91 -0.12 C126 0 126 0 127 1 C128.03 9.31 128.14 17.67 128.11 26.03 C128.11 27.17 128.11 28.32 128.11 29.49 C128.11 33.14 128.11 36.78 128.1 40.43 C128.1 42.7 128.1 44.97 128.09 47.24 C128.09 55.6 128.08 63.95 128.06 72.31 C128.04 91.02 128.02 109.73 128 129 C85.76 129 43.52 129 0 129 C0 86.43 0 43.86 0 0 Z " fill="#0075A0" transform="translate(0,256)"/>
<path d="M0 0 C16.64 -0.05 33.27 -0.08 49.91 -0.1 C57.64 -0.11 65.36 -0.13 73.09 -0.15 C79.82 -0.17 86.55 -0.18 93.28 -0.19 C96.85 -0.19 100.41 -0.2 103.98 -0.21 C107.95 -0.23 111.93 -0.23 115.91 -0.23 C117.1 -0.23 118.28 -0.24 119.5 -0.25 C120.58 -0.25 121.67 -0.24 122.78 -0.24 C123.72 -0.24 124.66 -0.24 125.63 -0.25 C128 0 128 0 131 2 C130.76 3.86 130.76 3.86 130.51 5.76 C129.89 11.43 129.83 17.06 129.79 22.76 C129.78 23.92 129.77 25.08 129.76 26.28 C129.73 30.01 129.71 33.74 129.68 37.47 C129.67 39.79 129.65 42.1 129.63 44.41 C129.56 52.96 129.5 61.51 129.44 70.06 C129.29 89.18 129.15 108.3 129 128 C87.09 128 45.18 128 2 128 C2 86.09 2 44.18 2 1 C1.34 0.67 0.68 0.34 0 0 Z " fill="#C4EB05" transform="translate(126,128)"/>
<path d="M0 0 C0.33 0.66 0.66 1.32 1 2 C2.98 1.98 2.98 1.98 4.99 1.97 C9.87 1.93 14.75 1.91 19.63 1.89 C21.75 1.88 23.86 1.87 25.97 1.85 C29.01 1.82 32.05 1.81 35.08 1.8 C36.03 1.79 36.98 1.78 37.95 1.77 C38.83 1.77 39.71 1.77 40.62 1.77 C41.4 1.77 42.17 1.76 42.97 1.76 C45 2 45 2 48 4 C48.93 6.8 49.13 8.47 49.13 11.36 C49.13 12.25 49.14 13.15 49.14 14.07 C49.14 15.55 49.14 15.55 49.13 17.06 C49.14 18.11 49.14 19.15 49.14 20.23 C49.15 23.75 49.15 27.27 49.15 30.79 C49.15 33.31 49.15 35.83 49.16 38.35 C49.16 44.48 49.17 50.62 49.17 56.76 C49.17 61.75 49.17 66.74 49.17 71.73 C49.18 85.86 49.19 99.99 49.19 114.13 C49.19 114.89 49.19 115.65 49.19 116.44 C49.19 117.2 49.19 117.96 49.19 118.75 C49.18 131.12 49.19 143.5 49.21 155.87 C49.22 168.57 49.23 181.27 49.23 193.97 C49.23 201.1 49.23 208.23 49.24 215.36 C49.25 222.07 49.25 228.77 49.24 235.48 C49.24 237.94 49.25 240.41 49.25 242.87 C49.26 246.23 49.25 249.59 49.25 252.94 C49.25 253.93 49.26 254.91 49.26 255.93 C49.26 257.27 49.26 257.27 49.25 258.64 C49.25 259.42 49.25 260.19 49.25 260.99 C48.93 263.55 47.83 265.17 46 267 C44.65 267.1 43.3 267.14 41.94 267.15 C40.65 267.15 40.65 267.15 39.33 267.16 C38.39 267.17 37.46 267.17 36.49 267.17 C35.53 267.17 34.57 267.17 33.58 267.18 C31.54 267.18 29.5 267.19 27.46 267.19 C24.34 267.19 21.23 267.21 18.12 267.22 C16.14 267.23 14.16 267.23 12.18 267.23 C11.25 267.24 10.32 267.24 9.36 267.25 C8.49 267.25 7.61 267.25 6.7 267.24 C5.94 267.24 5.17 267.25 4.39 267.25 C1.41 266.94 -1.18 265.97 -4 265 C-4.09 232.11 -4.16 199.21 -4.2 166.32 C-4.21 162.44 -4.21 158.56 -4.22 154.67 C-4.22 153.9 -4.22 153.13 -4.22 152.33 C-4.24 139.81 -4.27 127.29 -4.31 114.78 C-4.35 101.93 -4.37 89.09 -4.38 76.24 C-4.38 68.32 -4.4 60.39 -4.43 52.47 C-4.46 46.39 -4.46 40.31 -4.45 34.24 C-4.45 31.74 -4.46 29.25 -4.48 26.76 C-4.5 23.35 -4.49 19.95 -4.48 16.55 C-4.49 15.56 -4.5 14.57 -4.52 13.55 C-4.47 7.72 -3.79 4.5 0 0 Z " fill="#3E4142" transform="translate(1198,115)"/>
<path d="M0 0 C1.3 -0.01 1.3 -0.01 2.62 -0.03 C3.55 -0.02 4.48 -0.01 5.44 0.01 C6.88 0 6.88 0 8.35 0 C10.39 0 12.42 0.01 14.45 0.04 C17.56 0.06 20.66 0.06 23.77 0.04 C25.74 0.05 27.72 0.06 29.69 0.07 C30.62 0.07 31.55 0.06 32.5 0.06 C33.37 0.07 34.24 0.08 35.14 0.1 C35.9 0.1 36.66 0.11 37.45 0.11 C40.54 0.65 42.24 1.53 44.7 3.5 C45.32 6.65 45.32 6.65 45.31 10.61 C45.32 11.71 45.32 11.71 45.32 12.82 C45.33 15.27 45.31 17.72 45.28 20.17 C45.28 21.92 45.29 23.67 45.29 25.42 C45.3 30.19 45.27 34.95 45.24 39.72 C45.21 44.69 45.21 49.67 45.21 54.65 C45.2 63.01 45.17 71.37 45.13 79.72 C45.07 91.53 45.05 103.33 45.04 115.13 C45.02 123.29 45 131.45 44.98 139.61 C44.98 141.59 44.97 143.57 44.97 145.56 C44.95 151.21 44.93 156.85 44.9 162.5 C44.9 164.22 44.89 165.93 44.89 167.65 C44.88 169.98 44.87 172.31 44.85 174.64 C44.85 175.95 44.84 177.26 44.84 178.61 C44.7 181.5 44.7 181.5 43.7 182.5 C42.18 182.61 40.65 182.65 39.12 182.66 C38.15 182.67 37.17 182.68 36.17 182.69 C34.58 182.7 34.58 182.7 32.95 182.7 C31.87 182.71 30.79 182.72 29.68 182.72 C27.38 182.73 25.09 182.74 22.8 182.74 C19.28 182.75 15.76 182.78 12.24 182.81 C10.02 182.82 7.8 182.83 5.58 182.83 C4.52 182.84 3.46 182.85 2.37 182.87 C1.39 182.86 0.42 182.86 -0.59 182.86 C-1.89 182.86 -1.89 182.86 -3.21 182.87 C-3.9 182.75 -4.59 182.63 -5.3 182.5 C-7.77 178.8 -7.55 176.95 -7.56 172.52 C-7.56 171.81 -7.57 171.1 -7.57 170.36 C-7.58 167.96 -7.58 165.56 -7.57 163.16 C-7.58 161.44 -7.58 159.72 -7.59 158.01 C-7.6 153.33 -7.6 148.66 -7.6 143.99 C-7.6 140.09 -7.61 136.2 -7.61 132.3 C-7.62 123.11 -7.62 113.92 -7.62 104.73 C-7.61 95.24 -7.62 85.75 -7.64 76.26 C-7.66 68.12 -7.67 59.98 -7.66 51.84 C-7.66 46.97 -7.66 42.11 -7.68 37.24 C-7.69 32.67 -7.69 28.09 -7.68 23.52 C-7.67 21.84 -7.68 20.16 -7.68 18.48 C-7.7 16.19 -7.69 13.9 -7.67 11.61 C-7.67 10.32 -7.67 9.04 -7.68 7.72 C-7.07 2.55 -5.3 0 0 0 Z M41.7 175.5 C41.7 177.15 41.7 178.8 41.7 180.5 C26.52 180.5 11.34 180.5 -4.3 180.5 C-4.63 179.84 -4.96 179.18 -5.3 178.5 C-5.3 179.49 -5.3 180.48 -5.3 181.5 C10.54 181.5 26.38 181.5 42.7 181.5 C42.7 179.52 42.7 177.54 42.7 175.5 C42.37 175.5 42.04 175.5 41.7 175.5 Z " fill="#3C3F40" transform="translate(719.30029296875,199.498291015625)"/>
<path d="M0 0 C11.25 0 11.25 0 16 3 C16.25 5.31 16.25 5.31 16 8 C14 9.62 14 9.62 12 11 C12 11.99 12 12.98 12 14 C12.81 14.33 12.81 14.33 13.64 14.66 C17.32 16.29 19.57 17.37 21.88 20.75 C26.5 34.11 26.5 34.11 25 40 C23.38 42.54 21.61 44.76 19.63 47.02 C17.44 49.68 17.02 51.87 16.5 55.25 C17.13 59.96 18.78 61.31 22.27 64.32 C26.19 68.13 26.25 71.67 26.44 77 C26.63 88.76 26.63 88.76 31.79 98.7 C32.44 99.19 33.08 99.68 33.75 100.19 C35.82 101.94 36.88 103.15 37.27 105.87 C37.49 113 37.33 120.08 33 126 C32 127 32 127 29.93 127.1 C28.7 127.08 28.7 127.08 27.44 127.06 C26.2 127.05 26.2 127.05 24.93 127.04 C23.98 127.02 23.98 127.02 23 127 C23.48 128.7 23.48 128.7 23.97 130.44 C25.76 137.65 27.48 148.66 23.66 155.35 C22.56 156.48 21.46 157.62 20.36 158.75 C17.13 164.09 17.79 172.05 19 178 C20.33 180.47 21.73 182.15 23.65 184.17 C25.85 187.15 25.64 190.02 25.6 193.61 C24.74 197.03 23.59 198.57 21 201 C18.06 202.29 15.05 203.06 11.94 203.81 C11.12 204.03 10.31 204.24 9.47 204.47 C6.2 205.31 3.4 206 0 206 C0 138.02 0 70.04 0 0 Z " fill="#403F40" transform="translate(498,150)"/>
<path d="M0 0 C0.7 0.5 1.4 0.99 2.12 1.5 C2.12 2.16 2.12 2.82 2.12 3.5 C4.11 3.83 6.09 4.16 8.12 4.5 C8.25 5.14 8.37 5.78 8.5 6.44 C8.71 7.12 8.91 7.8 9.12 8.5 C9.78 8.83 10.45 9.16 11.12 9.5 C10.79 10.49 10.47 11.48 10.12 12.5 C10.78 12.83 11.45 13.16 12.12 13.5 C12.8 15.16 13.47 16.83 14.12 18.5 C14.64 19.11 15.15 19.71 15.68 20.34 C17.47 23.02 17.44 24.56 17.31 27.75 C17.27 29.09 17.27 29.09 17.23 30.45 C17.2 31.13 17.16 31.8 17.12 32.5 C16.47 32.5 15.8 32.5 15.12 32.5 C15.33 33.57 15.54 34.65 15.75 35.75 C16.11 39.38 16.11 40.58 14.12 43.5 C14.12 40.86 14.12 38.22 14.12 35.5 C13.79 35.83 13.47 36.16 13.12 36.5 C13.15 37.59 13.17 38.69 13.19 39.81 C13.13 43.22 12.91 44.71 11.12 47.5 C10.47 47.5 9.8 47.5 9.12 47.5 C8.86 48.08 8.59 48.66 8.31 49.25 C5.21 55.13 5.21 55.13 1.94 56.25 C1.34 56.33 0.74 56.41 0.12 56.5 C0.12 55.84 0.12 55.18 0.12 54.5 C-0.44 54.83 -1 55.15 -1.58 55.49 C-4.15 56.62 -5.85 56.73 -8.64 56.7 C-9.53 56.69 -10.42 56.68 -11.34 56.68 C-12.26 56.66 -13.18 56.64 -14.12 56.62 C-15.06 56.62 -16 56.61 -16.96 56.6 C-19.27 56.57 -21.57 56.54 -23.88 56.5 C-23.88 55.84 -23.88 55.18 -23.88 54.5 C-24.87 54.5 -25.86 54.5 -26.88 54.5 C-27.21 55.16 -27.53 55.82 -27.88 56.5 C-28.66 56.03 -29.44 55.55 -30.25 55.06 C-31.76 54.16 -33.3 53.29 -34.88 52.5 C-34.88 51.51 -34.88 50.52 -34.88 49.5 C-35.68 49.23 -36.48 48.96 -37.31 48.69 C-38.16 48.3 -39 47.9 -39.88 47.5 C-40.37 46.01 -40.37 46.01 -40.88 44.5 C-41.53 44.17 -42.2 43.84 -42.88 43.5 C-43.47 41.47 -43.47 41.47 -43.94 39 C-44.33 35.96 -44.33 35.96 -45.88 33.5 C-46.51 23.47 -44.43 15.23 -37.88 7.5 C-37.22 7.5 -36.55 7.5 -35.88 7.5 C-35.63 6.9 -35.38 6.3 -35.12 5.69 C-32.26 0.68 -27.02 -0.9 -21.82 -2.71 C-13.94 -4.83 -7.18 -3.75 0 0 Z M7.12 47.5 C8.12 49.5 8.12 49.5 8.12 49.5 Z " fill="#3C3F40" transform="translate(751.875,116.5)"/>
<path d="M0 0 C3.34 2.91 4.4 4.64 5 9 C5.09 11.06 5.13 13.13 5.13 15.19 C5.13 16.43 5.14 17.66 5.14 18.94 C5.14 20.28 5.14 21.63 5.13 22.98 C5.13 24.4 5.13 25.82 5.14 27.23 C5.14 30.22 5.14 33.2 5.13 36.19 C5.12 39.91 5.13 43.63 5.13 47.35 C5.15 62.87 5.02 78.38 4.55 93.89 C4.54 94.56 4.52 95.24 4.5 95.93 C4.27 103.7 3.87 111.4 3.12 119.13 C2.94 123.54 3.55 127.83 5 132 C5.66 132.66 6.32 133.32 7 134 C6.62 136.12 6.62 136.12 6 138 C3.22 137.65 2.21 137.25 0.37 135.07 C-0.13 134.29 -0.62 133.5 -1.12 132.69 C-1.87 131.52 -1.87 131.52 -2.63 130.32 C-3.08 129.56 -3.54 128.79 -4 128 C-4.36 127.44 -4.72 126.88 -5.08 126.31 C-6.38 123.04 -6.14 120.26 -6.01 116.75 C-5.99 116.05 -5.97 115.36 -5.94 114.64 C-5.89 113.18 -5.84 111.71 -5.78 110.25 C-5.69 108.01 -5.61 105.77 -5.54 103.53 C-5.12 91.64 -5.12 91.64 -4 88 C-4.99 88 -5.98 88 -7 88 C-7 85.03 -7 82.06 -7 79 C-5.52 78.5 -5.52 78.5 -4 78 C-3.97 74.1 -3.95 70.21 -3.94 66.31 C-3.93 65.23 -3.92 64.15 -3.91 63.03 C-3.9 57.59 -4.02 52.22 -4.48 46.79 C-5.11 39.31 -5.29 31.85 -5.35 24.34 C-5.37 22.77 -5.39 21.19 -5.43 19.62 C-5.49 17.31 -5.51 15 -5.52 12.69 C-5.55 11.99 -5.57 11.29 -5.59 10.57 C-5.57 6.57 -5.1 5.12 -2.47 2.02 C-1.65 1.35 -0.84 0.69 0 0 Z " fill="#403F40" transform="translate(1215,241)"/>
<path d="M0 0 C1.89 12.37 3.28 24.68 3.81 37.19 C3.87 38.3 3.92 39.42 3.97 40.57 C4.03 42.13 4.03 42.13 4.08 43.73 C4.12 44.65 4.15 45.57 4.18 46.52 C3.99 49.16 3.34 50.75 2 53 C1.34 53 0.68 53 0 53 C0 56.96 0 60.92 0 65 C0.66 65 1.32 65 2 65 C4.78 69.91 3.9 74.66 3 80 C2.67 80.99 2.34 81.98 2 83 C1.85 84.7 1.75 86.4 1.68 88.11 C1.64 89.09 1.6 90.07 1.56 91.08 C1.52 92.11 1.48 93.13 1.44 94.19 C1.39 95.22 1.35 96.26 1.31 97.33 C1.2 99.88 1.1 102.44 1 105 C-2.01 105.93 -2.87 106.04 -6 105 C-6 71.01 -6 37.02 -6 2 C-2 0 -2 0 0 0 Z " fill="#403F40" transform="translate(734,241)"/>
<path d="M0 0 C2.08 3.13 2.25 3.81 2.25 7.36 C2.26 8.7 2.26 8.7 2.27 10.07 C2.26 11.06 2.26 12.04 2.25 13.06 C2.26 14.11 2.26 15.15 2.26 16.23 C2.27 19.75 2.27 23.27 2.26 26.79 C2.26 29.31 2.27 31.83 2.27 34.35 C2.28 40.48 2.28 46.62 2.27 52.76 C2.27 57.75 2.27 62.74 2.27 67.73 C2.27 68.44 2.27 69.14 2.27 69.88 C2.27 71.32 2.27 72.76 2.27 74.2 C2.28 87.71 2.27 101.23 2.26 114.75 C2.25 126.35 2.25 137.96 2.26 149.56 C2.27 163.03 2.28 176.5 2.27 189.97 C2.27 191.4 2.27 192.84 2.27 194.27 C2.27 194.98 2.27 195.69 2.27 196.41 C2.26 201.4 2.27 206.38 2.27 211.36 C2.28 218.07 2.27 224.77 2.26 231.48 C2.26 233.94 2.26 236.41 2.27 238.87 C2.27 242.23 2.26 245.59 2.25 248.94 C2.26 249.93 2.26 250.91 2.27 251.93 C2.26 252.82 2.26 253.72 2.25 254.64 C2.25 255.42 2.25 256.19 2.25 256.99 C2 259 2 259 0 262 C-1.15 256.51 -1.14 251.18 -1.13 245.6 C-1.13 244.56 -1.13 243.51 -1.13 242.44 C-1.14 238.93 -1.13 235.43 -1.13 231.93 C-1.13 229.41 -1.13 226.9 -1.13 224.39 C-1.14 218.28 -1.14 212.17 -1.14 206.06 C-1.13 201.09 -1.13 196.13 -1.13 191.16 C-1.13 190.46 -1.13 189.75 -1.13 189.02 C-1.13 187.59 -1.13 186.15 -1.14 184.72 C-1.14 171.26 -1.13 157.81 -1.13 144.35 C-1.12 132.8 -1.13 121.25 -1.13 109.69 C-1.14 96.28 -1.14 82.87 -1.13 69.45 C-1.13 68.02 -1.13 66.6 -1.13 65.17 C-1.13 64.46 -1.13 63.76 -1.13 63.04 C-1.13 58.07 -1.13 53.11 -1.14 48.15 C-1.14 41.48 -1.14 34.81 -1.13 28.14 C-1.13 25.68 -1.13 23.22 -1.13 20.77 C-1.14 17.43 -1.13 14.1 -1.13 10.76 C-1.13 9.78 -1.13 8.79 -1.13 7.78 C-1.13 6.89 -1.13 6 -1.13 5.09 C-1.13 4.32 -1.13 3.55 -1.13 2.75 C-1 1 -1 1 0 0 Z " fill="#000002" transform="translate(1245,119)"/>
<path d="M0 0 C0.33 0 0.66 0 1 0 C1 38.61 1 77.22 1 117 C-40.91 117 -82.82 117 -126 117 C-126 115.35 -126 113.7 -126 112 C-125.67 112.66 -125.34 113.32 -125 114 C-123.92 113.84 -122.84 113.67 -121.73 113.51 C-116.27 112.83 -110.84 112.87 -105.35 112.89 C-103.64 112.89 -103.64 112.89 -101.89 112.89 C-98.13 112.89 -94.38 112.89 -90.62 112.9 C-88.01 112.9 -85.4 112.91 -82.79 112.91 C-76.63 112.91 -70.47 112.92 -64.31 112.93 C-57.3 112.94 -50.28 112.94 -43.27 112.95 C-28.84 112.96 -14.42 112.98 0 113 C-0.33 112.01 -0.66 111.02 -1 110 C-1.09 108.65 -1.13 107.3 -1.13 105.95 C-1.13 105.13 -1.13 104.31 -1.14 103.47 C-1.13 102.12 -1.13 102.12 -1.13 100.75 C-1.13 99.32 -1.13 99.32 -1.13 97.87 C-1.14 94.73 -1.14 91.58 -1.13 88.44 C-1.13 86.25 -1.13 84.06 -1.14 81.87 C-1.14 77.27 -1.14 72.68 -1.13 68.08 C-1.12 62.21 -1.13 56.34 -1.13 50.47 C-1.14 45.95 -1.14 41.42 -1.13 36.89 C-1.13 34.73 -1.13 32.57 -1.14 30.41 C-1.14 27.37 -1.13 24.33 -1.13 21.29 C-1.13 20.41 -1.13 19.53 -1.14 18.62 C-1.11 12.37 -0.65 6.21 0 0 Z " fill="#DDF305" transform="translate(254,139)"/>
<path d="M0 0 C0.66 0 1.32 0 2 0 C2 59.07 2 118.14 2 179 C1.01 179.33 0.02 179.66 -1 180 C-2.47 177.05 -2.13 174.43 -2.13 171.14 C-2.14 170.42 -2.14 169.71 -2.14 168.97 C-2.15 166.57 -2.15 164.16 -2.15 161.76 C-2.15 160.04 -2.15 158.32 -2.16 156.6 C-2.16 151.92 -2.17 147.24 -2.17 142.56 C-2.17 138.66 -2.17 134.75 -2.18 130.85 C-2.18 121.65 -2.19 112.45 -2.19 103.25 C-2.18 93.74 -2.2 84.24 -2.21 74.73 C-2.22 66.58 -2.23 58.43 -2.23 50.28 C-2.23 45.41 -2.23 40.54 -2.24 35.67 C-2.25 31.08 -2.25 26.5 -2.24 21.92 C-2.24 20.24 -2.25 18.56 -2.25 16.87 C-2.26 14.58 -2.25 12.28 -2.25 9.99 C-2.25 8.71 -2.25 7.42 -2.25 6.1 C-2 3 -2 3 0 0 Z " fill="#565758" transform="translate(714,201)"/>
<path d="M0 0 C0.99 0.33 1.98 0.66 3 1 C3.02 24.19 3.04 47.38 3.05 70.57 C3.06 81.34 3.06 92.11 3.08 102.87 C3.09 112.26 3.09 121.64 3.09 131.02 C3.1 135.99 3.1 140.96 3.11 145.93 C3.11 150.6 3.11 155.27 3.11 159.95 C3.11 161.67 3.12 163.39 3.12 165.11 C3.12 167.45 3.12 169.78 3.12 172.12 C3.12 173.43 3.12 174.75 3.12 176.1 C3 179 3 179 2 180 C0.47 180.09 -1.07 180.12 -2.61 180.11 C-3.59 180.11 -4.57 180.11 -5.58 180.11 C-6.65 180.11 -7.72 180.1 -8.82 180.1 C-10.45 180.1 -10.45 180.1 -12.11 180.09 C-15.59 180.09 -19.08 180.08 -22.56 180.06 C-24.92 180.06 -27.27 180.05 -29.63 180.05 C-35.42 180.04 -41.21 180.02 -47 180 C-47 179.67 -47 179.34 -47 179 C-31.16 179 -15.32 179 1 179 C0.67 177.02 0.34 175.04 0 173 C-0.09 170.57 -0.12 168.14 -0.12 165.71 C-0.12 165 -0.12 164.29 -0.12 163.55 C-0.12 161.18 -0.12 158.81 -0.11 156.44 C-0.11 154.73 -0.11 153.03 -0.11 151.32 C-0.11 146.7 -0.11 142.08 -0.1 137.46 C-0.1 132.63 -0.09 127.79 -0.09 122.96 C-0.09 113.81 -0.08 104.66 -0.07 95.52 C-0.06 85.1 -0.06 74.68 -0.05 64.27 C-0.04 42.85 -0.02 21.42 0 0 Z " fill="#000002" transform="translate(761,202)"/>
<path d="M0 0 C0.99 0 1.98 0 3 0 C4.32 2.64 4.1 4.68 4.06 7.62 C4.05 8.63 4.04 9.63 4.04 10.66 C4.02 11.43 4.01 12.21 4 13 C3.67 13 3.34 13 3 13 C2.67 10.03 2.34 7.06 2 4 C2 88.15 2 172.3 2 259 C1.34 259 0.68 259 0 259 C-0.33 259.66 -0.66 260.32 -1 261 C-1.02 228.04 -1.04 195.08 -1.05 162.12 C-1.05 158.23 -1.05 154.34 -1.05 150.45 C-1.06 149.68 -1.06 148.91 -1.06 148.11 C-1.06 135.56 -1.07 123.01 -1.08 110.47 C-1.09 97.6 -1.09 84.73 -1.09 71.87 C-1.1 63.92 -1.1 55.98 -1.11 48.03 C-1.11 41.95 -1.11 35.87 -1.11 29.78 C-1.11 27.28 -1.12 24.78 -1.12 22.28 C-1.12 18.88 -1.12 15.48 -1.12 12.07 C-1.12 11.07 -1.13 10.07 -1.13 9.04 C-1.13 8.13 -1.13 7.22 -1.12 6.29 C-1.12 5.5 -1.12 4.72 -1.12 3.91 C-1 2 -1 2 0 0 Z " fill="#1E1E1F" transform="translate(1195,119)"/>
<path d="M0 0 C1.32 -0 1.32 -0 2.67 -0 C4.53 -0 6.39 -0 8.26 0 C11.11 0.01 13.97 0 16.83 -0 C18.64 -0 20.44 -0 22.25 0 C23.11 -0 23.97 -0 24.85 -0.01 C30.9 0.02 30.9 0.02 33.12 1.13 C33.12 60.2 33.12 119.27 33.12 180.13 C18.27 180.13 3.42 180.13 -11.88 180.13 C-11.88 179.8 -11.88 179.47 -11.88 179.13 C2.64 179.13 17.16 179.13 32.12 179.13 C31.79 177.81 31.47 176.49 31.12 175.13 C31.03 172.8 31 170.46 31 168.12 C31 167.42 31 166.71 31 165.98 C31 163.62 31.01 161.25 31.01 158.89 C31.01 157.19 31.01 155.5 31.01 153.8 C31.01 149.2 31.02 144.6 31.02 140 C31.03 135.19 31.03 130.38 31.03 125.57 C31.03 116.46 31.04 107.35 31.05 98.24 C31.06 87.87 31.07 77.5 31.07 67.13 C31.09 45.8 31.1 24.46 31.12 3.13 C29.96 3.14 28.79 3.15 27.59 3.16 C23.27 3.2 18.95 3.22 14.63 3.24 C12.76 3.25 10.88 3.27 9.01 3.28 C6.33 3.31 3.64 3.32 0.95 3.33 C0.11 3.34 -0.73 3.35 -1.59 3.36 C-7.53 3.36 -7.53 3.36 -10.88 1.13 C-7.51 -0.55 -3.7 -0.01 0 0 Z " fill="#5A5E5F" transform="translate(727.875,199.8671875)"/>
<path d="M0 0 C1.13 0.02 2.27 0.04 3.44 0.06 C3.83 2.37 4.2 4.68 4.56 7 C4.77 8.29 4.98 9.58 5.2 10.9 C5.61 14.78 4.88 17.92 3.93 21.67 C3.04 26 3.19 30.35 3.25 34.75 C3.25 35.66 3.25 36.57 3.25 37.51 C3.28 42.15 3.6 46.49 4.44 51.06 C5.31 66.03 5.31 66.03 2.44 72.06 C0.36 73.3 0.36 73.3 -1.56 74.06 C-1.23 72.74 -0.9 71.42 -0.56 70.06 C-1.55 69.73 -2.54 69.4 -3.56 69.06 C-5.12 51.88 -5.12 51.88 -2.56 44.06 C-1.9 43.4 -1.24 42.74 -0.56 42.06 C-0.85 38.76 -0.85 38.76 -2.56 36.06 C-2.78 33.78 -2.94 31.48 -3.06 29.19 C-3.1 28.49 -3.14 27.79 -3.18 27.07 C-3.27 25.55 -3.35 24.03 -3.43 22.51 C-3.57 19.94 -3.72 17.38 -3.88 14.81 C-3.98 13.08 -4.09 11.35 -4.19 9.62 C-4.24 8.79 -4.29 7.96 -4.35 7.1 C-4.46 5.09 -4.52 3.07 -4.56 1.06 C-3.56 0.06 -3.56 0.06 0 0 Z " fill="#403F40" transform="translate(1214.5625,140.9375)"/>
<path d="M0 0 C0.33 0 0.66 0 1 0 C1.18 22.9 1.34 45.79 1.49 68.69 C1.57 79.32 1.64 89.95 1.72 100.58 C1.8 109.84 1.86 119.1 1.92 128.37 C1.95 133.27 1.98 138.18 2.03 143.09 C2.07 147.7 2.1 152.32 2.12 156.93 C2.13 158.63 2.14 160.33 2.16 162.02 C2.18 164.34 2.19 166.65 2.2 168.96 C2.21 170.25 2.22 171.55 2.23 172.88 C2 176 2 176 0 179 C-1.48 176.05 -1.13 173.42 -1.13 170.13 C-1.13 169.41 -1.13 168.7 -1.13 167.96 C-1.14 165.56 -1.13 163.15 -1.13 160.74 C-1.13 159.02 -1.13 157.3 -1.13 155.58 C-1.14 150.89 -1.14 146.21 -1.13 141.53 C-1.13 136.63 -1.13 131.74 -1.14 126.85 C-1.14 118.63 -1.14 110.41 -1.13 102.19 C-1.12 92.68 -1.13 83.17 -1.13 73.65 C-1.14 65.5 -1.14 57.34 -1.13 49.19 C-1.13 44.31 -1.13 39.44 -1.14 34.56 C-1.14 29.98 -1.14 25.39 -1.13 20.81 C-1.13 19.12 -1.13 17.44 -1.13 15.75 C-1.14 13.46 -1.13 11.16 -1.13 8.87 C-1.13 7.58 -1.13 6.3 -1.13 4.97 C-1 2 -1 2 0 0 Z " fill="#000002" transform="translate(713,202)"/>
<path d="M0 0 C9.87 -0.02 19.74 -0.04 29.61 -0.05 C34.19 -0.06 38.78 -0.06 43.36 -0.08 C63.6 -0.12 83.79 -0.12 104 1 C104.5 1.99 104.5 1.99 105 3 C70.35 3 35.7 3 0 3 C0 2.01 0 1.02 0 0 Z " fill="#5B5D5E" transform="translate(514,125)"/>
<path d="M0 0 C9.06 -0.02 18.12 -0.04 27.17 -0.05 C31.38 -0.06 35.59 -0.06 39.79 -0.08 C43.85 -0.09 47.91 -0.09 51.97 -0.09 C53.52 -0.1 55.06 -0.1 56.61 -0.11 C58.78 -0.11 60.95 -0.11 63.12 -0.11 C64.97 -0.12 64.97 -0.12 66.86 -0.12 C69.45 -0.02 71.55 0.23 74 1 C74 1.66 74 2.32 74 3 C49.58 3 25.16 3 0 3 C0 2.01 0 1.02 0 0 Z " fill="#5C5F60" transform="translate(1035,271)"/>
<path d="M0 0 C2.96 2.45 3.44 4.26 4 8 C4.24 12.27 4.23 16.54 4.25 20.81 C4.27 21.96 4.29 23.11 4.31 24.3 C4.34 30.94 3.82 35.96 1 42 C0.01 42 -0.98 42 -2 42 C-2.05 36.34 -2.09 30.68 -2.11 25.02 C-2.12 23.09 -2.13 21.17 -2.15 19.24 C-2.18 16.48 -2.19 13.71 -2.2 10.95 C-2.21 10.08 -2.22 9.22 -2.23 8.33 C-2.23 6.22 -2.12 4.11 -2 2 C-1.34 1.34 -0.68 0.68 0 0 Z " fill="#4D4E4F" transform="translate(678,184)"/>
<path d="M0 0 C0.14 6.07 0.29 12.14 0.43 18.21 C0.48 20.27 0.52 22.34 0.57 24.4 C0.64 27.37 0.71 30.33 0.78 33.3 C0.8 34.23 0.82 35.15 0.85 36.1 C0.87 36.96 0.89 37.83 0.91 38.71 C0.93 39.47 0.94 40.23 0.96 41.01 C0.99 42.67 1 44.34 1 46 C0.01 45.67 -0.98 45.34 -2 45 C-4.44 37.37 -4.27 29.82 -4.19 21.88 C-4.19 20.64 -4.19 19.4 -4.19 18.13 C-4.13 5.95 -4.13 5.95 -3 1 C-1 0 -1 0 0 0 Z " fill="#1C1B1D" transform="translate(987,269)"/>
<path d="M0 0 C1.05 0 2.09 0 3.17 0.01 C4.35 0.01 5.53 0.01 6.75 0.01 C8.03 0.01 9.32 0.02 10.64 0.02 C12.61 0.02 12.61 0.02 14.61 0.03 C18.09 0.03 21.58 0.04 25.06 0.05 C28.61 0.06 32.16 0.07 35.72 0.07 C42.69 0.08 49.67 0.1 56.64 0.12 C56.64 0.45 56.64 0.78 56.64 1.12 C27.93 1.62 27.93 1.62 -1.36 2.12 C-1.69 32.81 -2.02 63.5 -2.36 95.12 C-2.69 95.12 -3.02 95.12 -3.36 95.12 C-3.38 82.88 -3.4 70.64 -3.41 58.4 C-3.42 52.72 -3.42 47.04 -3.44 41.36 C-3.45 35.88 -3.45 30.4 -3.45 24.92 C-3.46 22.82 -3.46 20.73 -3.47 18.63 C-3.47 15.71 -3.47 12.79 -3.47 9.86 C-3.48 8.99 -3.48 8.11 -3.48 7.21 C-3.47 0.18 -3.47 0.18 0 0 Z " fill="#000002" transform="translate(555.3601226806641,284.87974548339844)"/>
<path d="M0 0 C2.67 -0 5.34 -0.02 8.02 -0.04 C9.73 -0.04 11.44 -0.04 13.15 -0.05 C13.94 -0.05 14.73 -0.06 15.55 -0.07 C19.74 -0.05 23.02 0.29 26.78 2.19 C26.12 3.18 25.46 4.17 24.78 5.19 C24.78 4.53 24.78 3.87 24.78 3.19 C6.3 3.52 -12.18 3.85 -31.22 4.19 C-24.38 -2.65 -9.3 -0 0 0 Z " fill="#5E6061" transform="translate(824.2177734375,199.814697265625)"/>
<path d="M0 0 C0.99 0.33 1.98 0.66 3 1 C2.67 1.33 2.34 1.66 2 2 C16.85 2 31.7 2 47 2 C47 2.33 47 2.66 47 3 C45.8 3.01 45.8 3.01 44.57 3.03 C40.9 3.08 37.23 3.17 33.56 3.25 C31.67 3.27 31.67 3.27 29.74 3.29 C20.71 3.53 14.49 5.01 7 10 C7.33 10.99 7.66 11.98 8 13 C7.01 13.66 6.02 14.32 5 15 C4.77 14.28 4.55 13.56 4.31 12.81 C3.11 9.8 3.11 9.8 0.31 7.44 C-0.45 6.63 -1.21 5.83 -2 5 C-1.87 2.69 -1.63 1.63 0 0 Z " fill="#3A393A" transform="translate(793,201)"/>
<path d="M0 0 C6.24 -0.02 12.49 -0.04 18.73 -0.05 C20.85 -0.06 22.97 -0.07 25.09 -0.08 C28.16 -0.09 31.22 -0.09 34.28 -0.1 C35.68 -0.11 35.68 -0.11 37.12 -0.11 C42.83 -0.11 48.34 0.27 54 1 C51.49 3.51 50.68 3.26 47.21 3.27 C46.22 3.28 45.23 3.29 44.2 3.3 C43.12 3.3 42.05 3.3 40.94 3.3 C39.84 3.31 38.73 3.31 37.6 3.31 C35.26 3.32 32.93 3.32 30.6 3.32 C27.01 3.31 23.43 3.34 19.85 3.36 C17.59 3.36 15.33 3.36 13.06 3.36 C11.45 3.38 11.45 3.38 9.8 3.39 C8.8 3.38 7.81 3.38 6.79 3.37 C5.91 3.37 5.03 3.37 4.13 3.37 C3.42 3.25 2.72 3.13 2 3 C1.34 2.01 0.68 1.02 0 0 Z " fill="#5C5F60" transform="translate(552,239)"/>
<path d="M0 0 C5.28 -0.02 10.57 -0.04 15.85 -0.05 C17.65 -0.06 19.44 -0.07 21.24 -0.08 C23.83 -0.09 26.41 -0.09 29 -0.1 C30.2 -0.11 30.2 -0.11 31.41 -0.11 C36.05 -0.11 40.43 0.23 45 1 C44.67 1.66 44.34 2.32 44 3 C28.82 3 13.64 3 -2 3 C-1.34 2.67 -0.68 2.34 0 2 C0 1.34 0 0.68 0 0 Z " fill="#5C5E5F" transform="translate(920,200)"/>
<path d="M0 0 C0.33 0 0.66 0 1 0 C1 42.57 1 85.14 1 129 C0.67 129 0.34 129 0 129 C0 86.43 0 43.86 0 0 Z " fill="#FBFDFD" transform="translate(385,128)"/>
<path d="M0 0 C1.13 0.02 2.27 0.04 3.44 0.06 C4.1 2.04 4.76 4.02 5.44 6.06 C4.12 6.06 2.8 6.06 1.44 6.06 C1.44 7.05 1.44 8.04 1.44 9.06 C0.45 9.56 0.45 9.56 -0.56 10.06 C-1.22 13.09 -1.22 13.09 -1.56 16.06 C-3.06 14.94 -3.06 14.94 -4.56 13.06 C-4.56 11.08 -4.56 9.1 -4.56 7.06 C-8.85 6.4 -13.14 5.74 -17.56 5.06 C-17.89 4.07 -18.22 3.08 -18.56 2.06 C-17.56 2 -16.56 1.94 -15.54 1.88 C-14.24 1.8 -12.95 1.71 -11.62 1.62 C-10.34 1.54 -9.05 1.46 -7.72 1.38 C-3.93 1 -3.96 0.07 0 0 Z " fill="#383738" transform="translate(968.5625,200.9375)"/>
<path d="M0 0 C40.59 0 81.18 0 123 0 C123 0.33 123 0.66 123 1 C82.41 1 41.82 1 0 1 C0 0.67 0 0.34 0 0 Z " fill="#000002" transform="translate(1035,306)"/>
<path d="M0 0 C2 1.56 2 1.56 3 3 C-1.32 3.76 -4.74 4.16 -9 3 C-9 3.66 -9 4.32 -9 5 C-8.34 5 -7.68 5 -7 5 C-8.15 7.47 -9.05 9.05 -11 11 C-11.68 11.17 -12.36 11.33 -13.06 11.5 C-13.7 11.67 -14.34 11.83 -15 12 C-15.33 12.66 -15.66 13.32 -16 14 C-16.66 13.67 -17.32 13.34 -18 13 C-16.54 9.94 -14.87 7.14 -13 4.31 C-12.48 3.52 -11.97 2.74 -11.44 1.93 C-8.41 -2.13 -4.48 -1.07 0 0 Z " fill="#414244" transform="translate(1125,317)"/>
<path d="M0 0 C0.78 0.04 1.57 0.08 2.38 0.12 C3.58 3.73 3.7 6.34 3.38 10.12 C1.38 13.06 1.38 13.06 -0.62 15.12 C-1.28 14.8 -1.95 14.46 -2.62 14.12 C-2.29 13.46 -1.97 12.81 -1.62 12.12 C-2.62 11.8 -3.61 11.46 -4.62 11.12 C-4.68 9.67 -4.72 8.21 -4.75 6.75 C-4.78 5.53 -4.78 5.53 -4.82 4.29 C-4.51 0.87 -3.34 0.16 0 0 Z " fill="#403F40" transform="translate(879.625,283.875)"/>
<path d="M0 0 C0.33 0 0.66 0 1 0 C1.98 4.92 2.16 9.62 2.17 14.61 C2.17 15.42 2.17 16.23 2.18 17.06 C2.18 18.76 2.19 20.45 2.19 22.15 C2.19 24.76 2.21 27.36 2.22 29.96 C2.23 31.62 2.23 33.27 2.23 34.92 C2.24 35.7 2.24 36.48 2.25 37.29 C2.23 42.77 2.23 42.77 0 45 C-0.17 42.81 -0.34 40.63 -0.5 38.44 C-0.59 37.22 -0.69 36 -0.78 34.75 C-0.93 32.22 -0.99 29.69 -0.97 27.16 C-0.77 24.1 -0.77 24.1 -2 22 C-1.68 20.33 -1.34 18.67 -1 17 C-0.74 14.07 -0.59 11.13 -0.44 8.19 C-0.39 7.4 -0.35 6.61 -0.31 5.8 C-0.2 3.87 -0.1 1.93 0 0 Z " fill="#040406" transform="translate(1158,261)"/>
<path d="M0 0 C4 1 4 1 5 2 C7.88 2.16 10.74 2.26 13.63 2.32 C14.93 2.35 14.93 2.35 16.25 2.38 C19.02 2.44 21.79 2.5 24.56 2.56 C26.44 2.61 28.31 2.65 30.19 2.69 C34.79 2.8 39.4 2.9 44 3 C44 4.65 44 6.3 44 8 C39.12 6.12 39.12 6.12 38 5 C35.63 4.84 33.28 4.74 30.9 4.68 C30.19 4.66 29.48 4.64 28.75 4.62 C26.48 4.56 24.21 4.5 21.94 4.44 C20.4 4.39 18.86 4.35 17.33 4.31 C13.55 4.2 9.78 4.1 6 4 C5.34 5.32 4.68 6.64 4 8 C3.34 8 2.68 8 2 8 C1.34 5.36 0.68 2.72 0 0 Z " fill="#403F40" transform="translate(715,200)"/>
<path d="M0 0 C0.33 0 0.66 0 1 0 C2.38 6 2.18 11.94 2.19 18.06 C2.2 19.25 2.21 20.43 2.22 21.65 C2.23 22.79 2.23 23.93 2.23 25.1 C2.23 26.13 2.24 27.17 2.24 28.24 C2 31.01 1.42 32.64 0 35 C-1.06 23.21 -1.46 11.77 0 0 Z " fill="#000002" transform="translate(680,187)"/>
<path d="M0 0 C2.56 0.31 2.56 0.31 4.44 1.56 C5.56 3.31 5.56 3.31 5.38 5.38 C4.56 7.31 4.56 7.31 2.56 9.31 C0.06 9.56 0.06 9.56 -2.44 9.31 C-4.44 7.31 -4.44 7.31 -4.69 4.81 C-4.34 1.36 -3.44 0.44 0 0 Z " fill="#403F40" transform="translate(526.4375,155.6875)"/>
<path d="M0 0 C0.99 0.33 1.98 0.66 3 1 C-1.97 6.83 -7.1 12.12 -13 17 C-13.33 16.01 -13.66 15.02 -14 14 C-12.61 12.41 -11.21 10.83 -9.81 9.25 C-8.65 7.93 -8.65 7.93 -7.46 6.58 C-5.09 4.09 -2.85 1.92 0 0 Z " fill="#555356" transform="translate(1017,215)"/>
<path d="M0 0 C0.5 1.49 0.5 1.49 1 3 C0 4 0 4 -2.28 4.12 C-3.29 4.12 -4.3 4.12 -5.35 4.11 C-6.49 4.11 -7.63 4.11 -8.8 4.11 C-10.05 4.11 -11.29 4.1 -12.57 4.1 C-14.46 4.1 -14.46 4.1 -16.4 4.09 C-19.76 4.09 -23.13 4.08 -26.49 4.07 C-29.92 4.06 -33.36 4.05 -36.79 4.05 C-43.52 4.04 -50.26 4.02 -57 4 C-57 3.67 -57 3.34 -57 3 C-38.52 2.67 -20.04 2.34 -1 2 C-0.67 1.34 -0.34 0.68 0 0 Z " fill="#000002" transform="translate(976,378)"/>
<path d="M0 0 C0.33 0.66 0.66 1.32 1 2 C2.32 1.67 3.64 1.34 5 1 C3.51 5.73 3.51 5.73 1 7.06 C0.34 7.37 -0.32 7.68 -1 8 C-2.27 10.03 -2.27 10.03 -3 12 C-3.99 12 -4.98 12 -6 12 C-6.99 12.5 -6.99 12.5 -8 13 C-6.63 10.16 -5.12 7.48 -3.44 4.81 C-3 4.12 -2.57 3.42 -2.12 2.71 C-1 1 -1 1 0 0 Z " fill="#343435" transform="translate(802,362)"/>
<path d="M0 0 C3.89 1.26 5.89 2.45 8 6 C8 6.66 8 7.32 8 8 C8.66 8 9.32 8 10 8 C10.69 10.49 11 12.38 11 15 C10.01 15 9.02 15 8 15 C7.71 14.38 7.42 13.76 7.12 13.12 C6.06 10.87 6.06 10.87 4 9 C4 8.01 4 7.02 4 6 C3.01 5.67 2.02 5.34 1 5 C-0.19 2.94 -0.19 2.94 -1 1 C-0.67 0.67 -0.34 0.34 0 0 Z " fill="#29292B" transform="translate(811,230)"/>
<path d="M0 0 C2.48 0.99 2.48 0.99 5 2 C5 3.65 5 5.3 5 7 C4.34 7 3.68 7 3 7 C2.67 8.65 2.34 10.3 2 12 C1.01 11.67 0.02 11.34 -1 11 C-2.23 4.6 -2.23 4.6 -1.06 1.56 C-0.71 1.05 -0.36 0.53 0 0 Z " fill="#403F40" transform="translate(1000,283)"/>
<path d="M0 0 C1.21 0 1.21 0 2.45 0.01 C5 0.02 7.54 0.04 10.09 0.07 C11.83 0.08 13.57 0.09 15.31 0.1 C19.55 0.12 23.79 0.15 28.03 0.2 C28.03 0.53 28.03 0.86 28.03 1.2 C16.81 1.53 5.59 1.86 -5.97 2.2 C-5.97 2.86 -5.97 3.52 -5.97 4.2 C-9.93 3.87 -13.89 3.54 -17.97 3.2 C-17.97 2.87 -17.97 2.54 -17.97 2.2 C-11.89 0.61 -6.28 -0.08 0 0 Z " fill="#303233" transform="translate(1061.97265625,196.8046875)"/>
<path d="M0 0 C0.33 0.66 0.66 1.32 1 2 C-2.29 2.2 -5.58 2.38 -8.88 2.56 C-9.81 2.62 -10.75 2.67 -11.71 2.73 C-12.61 2.78 -13.51 2.83 -14.43 2.88 C-15.26 2.93 -16.08 2.97 -16.94 3.02 C-19 3 -19 3 -21 2 C-21 1.34 -21 0.68 -21 0 C-14 -0.99 -6.98 -1.46 0 0 Z " fill="#2A2A2B" transform="translate(630,128)"/>
<path d="M0 0 C0.99 0.33 1.98 0.66 3 1 C5.28 1.15 7.57 1.25 9.86 1.32 C10.52 1.34 11.18 1.36 11.86 1.38 C13.97 1.44 16.08 1.5 18.19 1.56 C19.62 1.61 21.05 1.65 22.48 1.69 C25.99 1.8 29.49 1.9 33 2 C33 2.33 33 2.66 33 3 C32.28 3.03 31.56 3.05 30.81 3.08 C27.56 3.19 24.31 3.31 21.06 3.44 C19.93 3.48 18.79 3.52 17.62 3.56 C16 3.62 16 3.62 14.35 3.68 C13.35 3.72 12.35 3.76 11.32 3.79 C9.04 3.75 9.04 3.75 8 5 C2.47 5.24 2.47 5.24 0 4 C0 2.68 0 1.36 0 0 Z " fill="#403F40" transform="translate(917,201)"/>
<path d="M0 0 C-0.99 0.33 -1.98 0.66 -3 1 C-2.81 1.74 -2.63 2.49 -2.44 3.25 C-2.01 5.95 -2.15 7.45 -3 10 C-4.32 9.67 -5.64 9.34 -7 9 C-6.67 6.36 -6.34 3.72 -6 1 C-7.32 0.67 -8.64 0.34 -10 0 C-6.23 -2.61 -4.08 -1.67 0 0 Z " fill="#2F2F30" transform="translate(1157,328)"/>
<path d="M0 0 C0.33 0 0.66 0 1 0 C1.14 5.21 1.29 10.43 1.43 15.64 C1.48 17.42 1.52 19.19 1.57 20.97 C1.64 23.51 1.71 26.06 1.78 28.61 C1.8 29.41 1.82 30.2 1.85 31.02 C1.93 34.01 2 37 2 40 C1.34 40 0.68 40 0 40 C0 26.8 0 13.6 0 0 Z " fill="#6B6B6B" transform="translate(986,275)"/>
<path d="M0 0 C0 0.99 0 1.98 0 3 C-1.98 3.66 -3.96 4.32 -6 5 C-6 5.99 -6 6.98 -6 8 C-8.64 8 -11.28 8 -14 8 C-14 7.34 -14 6.68 -14 6 C-12.68 5.67 -11.36 5.34 -10 5 C-10 4.34 -10 3.68 -10 3 C-5.05 1.51 -5.05 1.51 0 0 Z " fill="#262728" transform="translate(1041,201)"/>
<path d="M0 0 C3.1 -0.09 6.21 -0.14 9.31 -0.19 C10.19 -0.21 11.07 -0.24 11.98 -0.26 C13.25 -0.28 13.25 -0.28 14.55 -0.29 C15.72 -0.32 15.72 -0.32 16.92 -0.34 C19.5 0.08 20.36 1.01 22 3 C21.01 3.33 20.02 3.66 19 4 C18.01 3.34 17.02 2.68 16 2 C13.67 2.33 11.33 2.66 9 3 C5.98 2.82 3 2.44 0 2 C0 1.34 0 0.68 0 0 Z " fill="#222324" transform="translate(1116,320)"/>
<path d="M0 0 C8.25 0 16.5 0 25 0 C25 0.33 25 0.66 25 1 C20.65 2.06 16.39 2.18 11.94 2.19 C11.23 2.2 10.52 2.21 9.79 2.22 C5.71 2.24 3.76 1.88 0 0 Z " fill="#000002" transform="translate(726,174)"/>
<path d="M0 0 C0 0.66 0 1.32 0 2 C7.26 2 14.52 2 22 2 C22 2.33 22 2.66 22 3 C12.1 3 2.2 3 -8 3 C-4 0 -4 0 0 0 Z " fill="#656767" transform="translate(1070,342)"/>
<path d="M0 0 C0.99 0.33 1.98 0.66 3 1 C3 4.3 3 7.6 3 11 C2.34 11 1.68 11 1 11 C1.21 12.07 1.41 13.15 1.62 14.25 C2 18 2 18 0 22 C0 14.74 0 7.48 0 0 Z " fill="#292A2C" transform="translate(766,138)"/>
<path d="M0 0 C0.33 0.99 0.66 1.98 1 3 C0.01 3.99 -0.98 4.98 -2 6 C-1.34 6.66 -0.68 7.32 0 8 C-1.32 8.99 -2.64 9.98 -4 11 C-4.33 10.34 -4.66 9.68 -5 9 C-5.66 10.65 -6.32 12.3 -7 14 C-7.99 14 -8.98 14 -10 14 C-7 8.97 -3.86 4.41 0 0 Z " fill="#282A2B" transform="translate(831,321)"/>
<path d="M0 0 C11.88 0 23.76 0 36 0 C36 0.33 36 0.66 36 1 C24.12 1 12.24 1 0 1 C0 0.67 0 0.34 0 0 Z " fill="#000002" transform="translate(515,381)"/>
<path d="M0 0 C0.99 0.33 1.98 0.66 3 1 C2.13 1.68 1.27 2.36 0.38 3.06 C-2.73 5.62 -5.21 8.5 -7.7 11.64 C-8.13 12.09 -8.56 12.54 -9 13 C-9.66 13 -10.32 13 -11 13 C-11 13.66 -11 14.32 -11 15 C-11.66 14.67 -12.32 14.34 -13 14 C-10.22 10.4 -7.26 7.18 -4 4 C-3.24 3.24 -2.47 2.47 -1.69 1.69 C-1.13 1.13 -0.57 0.57 0 0 Z " fill="#1E1F21" transform="translate(1019,216)"/>
<path d="M0 0 C10.56 0 21.12 0 32 0 C32 0.33 32 0.66 32 1 C21.44 1 10.88 1 0 1 C0 0.67 0 0.34 0 0 Z " fill="#FB0B4C" transform="translate(88,125)"/>
<path d="M0 0 C1.16 0.9 2.3 1.82 3.44 2.75 C4.08 3.26 4.71 3.77 5.37 4.3 C7.19 6.2 7.6 7.44 8 10 C6.19 9.81 6.19 9.81 4 9 C1.87 6.08 0.8 3.49 0 0 Z " fill="#4F5052" transform="translate(917,297)"/>
<path d="M0 0 C2 2 2 2 2 5 C1.24 5.23 0.47 5.45 -0.31 5.69 C-3.55 7.27 -4.42 8.83 -6 12 C-6.66 11.67 -7.32 11.34 -8 11 C-7.04 9.54 -6.09 8.08 -5.12 6.62 C-4.59 5.81 -4.06 5 -3.51 4.16 C-2 2 -2 2 0 0 Z " fill="#212223" transform="translate(840,309)"/>
<path d="M0 0 C0.99 0.33 1.98 0.66 3 1 C2.01 1.5 2.01 1.5 1 2 C2.32 4.31 3.64 6.62 5 9 C4.01 9.33 3.02 9.66 2 10 C-0.06 7.75 -0.06 7.75 -2 5 C-1.81 2.74 -1.6 1.6 0 0 Z " fill="#050507" transform="translate(793,201)"/>
<path d="M0 0 C4 3.49 5.63 5.65 6 11 C5.34 11 4.68 11 4 11 C1.63 8.01 0.08 5.97 -0.25 2.12 C-0.17 1.42 -0.09 0.72 0 0 Z " fill="#0F0D0F" transform="translate(908,363)"/>
<path d="M0 0 C0.99 0 1.98 0 3 0 C4.32 2.64 4.1 4.68 4.06 7.62 C4.05 8.63 4.04 9.63 4.04 10.66 C4.02 11.43 4.01 12.21 4 13 C3.67 13 3.34 13 3 13 C2.67 10.03 2.34 7.06 2 4 C1.67 6.64 1.34 9.28 1 12 C0.67 12 0.34 12 0 12 C0 8.04 0 4.08 0 0 Z " fill="#3E3E3F" transform="translate(1195,119)"/>
<path d="M0 0 C0.99 0.33 1.98 0.66 3 1 C3.33 2.65 3.66 4.3 4 6 C3.01 5.67 2.02 5.34 1 5 C1 4.34 1 3.68 1 3 C0.01 3.5 0.01 3.5 -1 4 C-1.33 4.99 -1.66 5.98 -2 7 C-2.99 6.67 -3.98 6.34 -5 6 C-3.87 2.6 -3.03 1.78 0 0 Z " fill="#4E4E50" transform="translate(797,372)"/>
<path d="M0 0 C1.32 0 2.64 0 4 0 C5.81 2.31 5.81 2.31 7 5 C6.67 5.99 6.34 6.98 6 8 C5.34 8 4.68 8 4 8 C4 7.34 4 6.68 4 6 C3.34 6 2.68 6 2 6 C1.34 4.02 0.68 2.04 0 0 Z " fill="#424244" transform="translate(835,264)"/>
<path d="M0 0 C2.97 0 5.94 0 9 0 C9 0.99 9 1.98 9 3 C6.36 3 3.72 3 1 3 C0.67 2.01 0.34 1.02 0 0 Z " fill="#3D3C3D" transform="translate(840,203)"/>
<path d="M0 0 C0 3 0 3 -1.31 4.61 C-1.87 5.13 -2.43 5.65 -3 6.19 C-3.56 6.72 -4.11 7.25 -4.69 7.79 C-5.12 8.19 -5.55 8.59 -6 9 C-6.66 8.67 -7.32 8.34 -8 8 C-5.36 5.36 -2.72 2.72 0 0 Z " fill="#6C6F72" transform="translate(1142,356)"/>
<path d="M0 0 C4.62 0 9.24 0 14 0 C14 0.33 14 0.66 14 1 C9.38 1 4.76 1 0 1 C0 0.67 0 0.34 0 0 Z " fill="#FB0B4C" transform="translate(12,125)"/>
<path d="M0 0 C2.64 0 5.28 0 8 0 C8 0.33 8 0.66 8 1 C3.54 1.5 3.54 1.5 -1 2 C-0.67 1.34 -0.34 0.68 0 0 Z " fill="#000002" transform="translate(621,281)"/>
<path d="M0 0 C0.33 0 0.66 0 1 0 C1.33 2.64 1.66 5.28 2 8 C1.34 8 0.68 8 0 8 C0 5.36 0 2.72 0 0 Z " fill="#040406" transform="translate(677,175)"/>
<path d="M0 0 C3.3 0 6.6 0 10 0 C10 0.33 10 0.66 10 1 C6.7 1 3.4 1 0 1 C0 0.67 0 0.34 0 0 Z " fill="#FB6C90" transform="translate(0,125)"/>
<path d="M0 0 C1.65 0 3.3 0 5 0 C5.33 0.66 5.66 1.32 6 2 C3.03 1.5 3.03 1.5 0 1 C0 0.67 0 0.34 0 0 Z " fill="#000002" transform="translate(1032,377)"/>
<path d="M0 0 C1.21 0.03 1.21 0.03 2.44 0.06 C1.78 0.72 1.12 1.38 0.44 2.06 C-1.69 1.69 -1.69 1.69 -3.56 1.06 C-2.56 0.06 -2.56 0.06 0 0 Z " fill="#000002" transform="translate(635.5625,276.9375)"/>
<path d="M0 0 C0.66 0 1.32 0 2 0 C1.67 2.31 1.34 4.62 1 7 C0.67 7 0.34 7 0 7 C0 4.69 0 2.38 0 0 Z " fill="#020204" transform="translate(677,227)"/>
<path d="M0 0 C2.97 0 5.94 0 9 0 C9 0.33 9 0.66 9 1 C6.03 1 3.06 1 0 1 C0 0.67 0 0.34 0 0 Z " fill="#000002" transform="translate(597,171)"/>
<path d="M0 0 C0.99 0.33 1.98 0.66 3 1 C2.36 1.12 1.72 1.25 1.06 1.38 C0.38 1.58 -0.3 1.79 -1 2 C-1.33 2.66 -1.66 3.32 -2 4 C-2 3.01 -2 2.02 -2 1 C-1.34 0.67 -0.68 0.34 0 0 Z " fill="#000002" transform="translate(1128,370)"/>
<path d="M0 0 C0.66 0.33 1.32 0.66 2 1 C1.67 2.65 1.34 4.3 1 6 C-0.06 4.12 -0.06 4.12 -1 2 C-0.67 1.34 -0.34 0.68 0 0 Z " fill="#000002" transform="translate(1155,334)"/>
<path d="M0 0 C0.99 1.49 0.99 1.49 2 3 C1.67 3.99 1.34 4.98 1 6 C0 5 0 5 -0.06 2.44 C-0.04 1.63 -0.02 0.83 0 0 Z " fill="#000002" transform="translate(1151,241)"/>
<path d="M0 0 C0.66 0.33 1.32 0.66 2 1 C1.01 2.32 0.02 3.64 -1 5 C-0.67 3.35 -0.34 1.7 0 0 Z " fill="#000002" transform="translate(870,345)"/>
<path d="M0 0 C1.06 1.88 1.06 1.88 2 4 C1.67 4.66 1.34 5.32 1 6 C0 5 0 5 -0.06 2.44 C-0.04 1.63 -0.02 0.83 0 0 Z " fill="#000002" transform="translate(1037,316)"/>
<path d="M0 0 C0.33 0 0.66 0 1 0 C1 2.31 1 4.62 1 7 C0.67 7 0.34 7 0 7 C0 4.69 0 2.38 0 0 Z " fill="#686C70" transform="translate(1160,286)"/>
<path d="M0 0 C0.99 0.33 1.98 0.66 3 1 C1.35 1.66 -0.3 2.32 -2 3 C-2 2.34 -2 1.68 -2 1 C-1.34 0.67 -0.68 0.34 0 0 Z " fill="#000002" transform="translate(647,270)"/>
<path d="M0 0 C2.31 0 4.62 0 7 0 C7 0.33 7 0.66 7 1 C4.69 1 2.38 1 0 1 C0 0.67 0 0.34 0 0 Z " fill="#000002" transform="translate(1059,239)"/>
<path d="M0 0 C0.99 0.33 1.98 0.66 3 1 C1.35 1.33 -0.3 1.66 -2 2 C-1.34 1.34 -0.68 0.68 0 0 Z " fill="#000002" transform="translate(1117,377)"/>
<path d="M0 0 C0.33 0.99 0.66 1.98 1 3 C0.34 3.66 -0.32 4.32 -1 5 C-0.67 3.35 -0.34 1.7 0 0 Z " fill="#000002" transform="translate(674,238)"/>
<path d="M0 0 C0.99 1.49 0.99 1.49 2 3 C1.67 3.66 1.34 4.32 1 5 C0.67 3.35 0.34 1.7 0 0 Z " fill="#000002" transform="translate(766,131)"/>
<path d="M0 0 C1.98 0 3.96 0 6 0 C6 0.33 6 0.66 6 1 C4.02 1 2.04 1 0 1 C0 0.67 0 0.34 0 0 Z " fill="#FB6C90" transform="translate(77,125)"/>
<path d="M0 0 C1.65 0 3.3 0 5 0 C5 0.33 5 0.66 5 1 C3.35 1 1.7 1 0 1 C0 0.67 0 0.34 0 0 Z " fill="#000002" transform="translate(1107,381)"/>
<path d="M0 0 C1.32 0.33 2.64 0.66 4 1 C3.01 1.5 3.01 1.5 2 2 C1.34 1.34 0.68 0.68 0 0 Z " fill="#000002" transform="translate(1027,374)"/>
<path d="M0 0 C1.32 0.33 2.64 0.66 4 1 C3.01 1.5 3.01 1.5 2 2 C1.34 1.34 0.68 0.68 0 0 Z " fill="#000002" transform="translate(1020,370)"/>
<path d="M0 0 C0.66 1.32 1.32 2.64 2 4 C1.34 3.67 0.68 3.34 0 3 C0 2.01 0 1.02 0 0 Z " fill="#000002" transform="translate(969,367)"/>
<path d="M0 0 C0.33 0.66 0.66 1.32 1 2 C0.34 2.66 -0.32 3.32 -1 4 C-0.67 2.68 -0.34 1.36 0 0 Z " fill="#000002" transform="translate(856,367)"/>
<path d="M0 0 C0.66 1.32 1.32 2.64 2 4 C1.34 3.67 0.68 3.34 0 3 C0 2.01 0 1.02 0 0 Z " fill="#040406" transform="translate(933,316)"/>
<path d="M0 0 C0.33 0.66 0.66 1.32 1 2 C0.34 2.66 -0.32 3.32 -1 4 C-0.67 2.68 -0.34 1.36 0 0 Z " fill="#000002" transform="translate(931,264)"/>
<path d="M0 0 C0.66 1.32 1.32 2.64 2 4 C1.34 3.67 0.68 3.34 0 3 C0 2.01 0 1.02 0 0 Z " fill="#09090B" transform="translate(1144,229)"/>
<path d="M0 0 C4 1 4 1 4 1 Z " fill="#000002" transform="translate(1040,381)"/>
<path d="M0 0 C0 3 0 3 0 3 Z " fill="#000002" transform="translate(863,357)"/>
<path d="M0 0 C0 3 0 3 0 3 Z " fill="#000002" transform="translate(877,336)"/>
<path d="M0 0 C0.99 0.5 0.99 0.5 2 1 C1.67 1.66 1.34 2.32 1 3 C0.67 2.01 0.34 1.02 0 0 Z " fill="#9DA1A6" transform="translate(1155,330)"/>
<path d="M0 0 C0 3 0 3 0 3 Z " fill="#000002" transform="translate(959,225)"/>
<path d="M0 0 C0.99 0.5 0.99 0.5 2 1 C1.01 1.5 1.01 1.5 0 2 C0 1.34 0 0.68 0 0 Z " fill="#8E898E" transform="translate(1145,353)"/>
<path d="M0 0 C0.66 0 1.32 0 2 0 C1.67 0.66 1.34 1.32 1 2 C0.67 1.34 0.34 0.68 0 0 Z " fill="#000002" transform="translate(1043,328)"/>
<path d="M0 0 C3 1 3 1 3 1 Z " fill="#000002" transform="translate(613,284)"/>
<path d="" fill="#000002" transform="translate(0,0)"/>
<path d="M0 0 C0.33 0.66 0.66 1.32 1 2 C0.34 1.67 -0.32 1.34 -1 1 C-0.67 0.67 -0.34 0.34 0 0 Z " fill="#000002" transform="translate(933,262)"/>
<path d="" fill="#000002" transform="translate(0,0)"/>
<path d="M0 0 C3 1 3 1 3 1 Z " fill="#000002" transform="translate(1053,242)"/>
<path d="" fill="#000002" transform="translate(0,0)"/>
<path d="M0 0 C3 1 3 1 3 1 Z " fill="#000002" transform="translate(609,174)"/>
<path d="M0 0 C2 1 2 1 2 1 Z " fill="#000002" transform="translate(1196,381)"/>
<path d="" fill="#000002" transform="translate(0,0)"/>
<path d="" fill="#000002" transform="translate(0,0)"/>
<path d="M0 0 C2 1 2 1 2 1 Z " fill="#A2AAAE" transform="translate(1119,375)"/>
<path d="" fill="#CCAEBE" transform="translate(0,0)"/>
<path d="M0 0 C2 1 2 1 2 1 Z " fill="#4C4F50" transform="translate(1143,355)"/>
<path d="" fill="#000002" transform="translate(0,0)"/>
<path d="" fill="#98999E" transform="translate(0,0)"/>
<path d="" fill="#98999E" transform="translate(0,0)"/>
<path d="" fill="#0B0C0D" transform="translate(0,0)"/>
<path d="" fill="#000002" transform="translate(0,0)"/>
<path d="M0 0 C2 1 2 1 2 1 Z " fill="#000002" transform="translate(630,279)"/>
<path d="" fill="#A2AAAE" transform="translate(0,0)"/>
<path d="" fill="#98999E" transform="translate(0,0)"/>
<path d="" fill="#8E898E" transform="translate(0,0)"/>
<path d="" fill="#000002" transform="translate(0,0)"/>
<path d="M0 0 C2 1 2 1 2 1 Z " fill="#A2AAAE" transform="translate(1055,240)"/>
<path d="M0 0 C2 1 2 1 2 1 Z " fill="#888C8E" transform="translate(970,207)"/>
<path d="M0 0 C2 1 2 1 2 1 Z " fill="#A2AAAE" transform="translate(749,172)"/>
<path d="M0 0 C2 1 2 1 2 1 Z " fill="#F7B2CE" transform="translate(608,172)"/>
<path d="" fill="#A2AAAE" transform="translate(0,0)"/>
<path d="" fill="#000002" transform="translate(0,0)"/>
<path d="M0 0 C2 1 2 1 2 1 Z " fill="#FB0B4C" transform="translate(84,125)"/>
<path d="" fill="#1E2021" transform="translate(0,0)"/>
<path d="" fill="#000002" transform="translate(0,0)"/>
<path d="" fill="#A2AAAE" transform="translate(0,0)"/>
<path d="" fill="#A2AAAE" transform="translate(0,0)"/>
<path d="" fill="#8E898E" transform="translate(0,0)"/>
<path d="" fill="#000002" transform="translate(0,0)"/>
<path d="" fill="#000002" transform="translate(0,0)"/>
<path d="" fill="#000002" transform="translate(0,0)"/>
<path d="" fill="#000002" transform="translate(0,0)"/>
<path d="" fill="#000002" transform="translate(0,0)"/>
<path d="" fill="#000002" transform="translate(0,0)"/>
<path d="" fill="#000002" transform="translate(0,0)"/>
<path d="" fill="#171819" transform="translate(0,0)"/>
<path d="" fill="#000002" transform="translate(0,0)"/>
<path d="" fill="#000002" transform="translate(0,0)"/>
<path d="" fill="#000002" transform="translate(0,0)"/>
<path d="" fill="#000002" transform="translate(0,0)"/>
<path d="" fill="#000002" transform="translate(0,0)"/>
<path d="" fill="#000002" transform="translate(0,0)"/>
<path d="" fill="#000002" transform="translate(0,0)"/>
<path d="" fill="#000002" transform="translate(0,0)"/>
<path d="" fill="#000002" transform="translate(0,0)"/>
<path d="" fill="#000002" transform="translate(0,0)"/>
<path d="" fill="#171819" transform="translate(0,0)"/>
<path d="" fill="#000002" transform="translate(0,0)"/>
<path d="" fill="#000002" transform="translate(0,0)"/>
<path d="" fill="#000002" transform="translate(0,0)"/>
<path d="" fill="#000002" transform="translate(0,0)"/>
<path d="" fill="#A2AAAE" transform="translate(0,0)"/>
<path d="" fill="#F7B2CE" transform="translate(0,0)"/>
<path d="" fill="#000002" transform="translate(0,0)"/>
<path d="" fill="#000002" transform="translate(0,0)"/>
<path d="" fill="#000002" transform="translate(0,0)"/>
<path d="" fill="#000002" transform="translate(0,0)"/>
<path d="" fill="#000002" transform="translate(0,0)"/>
<path d="" fill="#000002" transform="translate(0,0)"/>
<path d="" fill="#000002" transform="translate(0,0)"/>
<path d="" fill="#000002" transform="translate(0,0)"/>
<path d="" fill="#000002" transform="translate(0,0)"/>
<path d="" fill="#A2AAAE" transform="translate(0,0)"/>
<path d="" fill="#000002" transform="translate(0,0)"/>
<path d="" fill="#000002" transform="translate(0,0)"/>
<path d="" fill="#F7B2CE" transform="translate(0,0)"/>
<path d="" fill="#000002" transform="translate(0,0)"/>
<path d="" fill="#000002" transform="translate(0,0)"/>
<path d="" fill="#000002" transform="translate(0,0)"/>
<path d="" fill="#000002" transform="translate(0,0)"/>
<path d="" fill="#000002" transform="translate(0,0)"/>
<path d="" fill="#000002" transform="translate(0,0)"/>
<path d="" fill="#000002" transform="translate(0,0)"/>
<path d="" fill="#000002" transform="translate(0,0)"/>
<path d="" fill="#000002" transform="translate(0,0)"/>
<path d="" fill="#000002" transform="translate(0,0)"/>
<path d="" fill="#000002" transform="translate(0,0)"/>
<path d="" fill="#A2AAAE" transform="translate(0,0)"/>
<path d="" fill="#000002" transform="translate(0,0)"/>
<path d="" fill="#000002" transform="translate(0,0)"/>
<path d="" fill="#000002" transform="translate(0,0)"/>
<path d="" fill="#A2AAAE" transform="translate(0,0)"/>
<path d="" fill="#F7B2CE" transform="translate(0,0)"/>
<path d="" fill="#000002" transform="translate(0,0)"/>
<path d="" fill="#A2AAAE" transform="translate(0,0)"/>
<path d="" fill="#000002" transform="translate(0,0)"/>
<path d="" fill="#A2AAAE" transform="translate(0,0)"/>
<path d="" fill="#000002" transform="translate(0,0)"/>
<path d="" fill="#000002" transform="translate(0,0)"/>
<path d="" fill="#000002" transform="translate(0,0)"/>
<path d="" fill="#000002" transform="translate(0,0)"/>
</svg>
